Eurostile-Medium.ufo
<glyph name="exclam" format="1">
  <advance width="270"/>
  <unicode hex="0021"/>
  <outline>
    <contour>
      <point x="182" y="102" type="line"/>
      <point x="93" y="102" type="line"/>
      <point x="93" y="0" type="line"/>
      <point x="182" y="0" type="line"/>
    </contour>
    <contour>
      <point x="182" y="750" type="line"/>
      <point x="93" y="750" type="line"/>
      <point x="101" y="207" type="line"/>
      <point x="174" y="207" type="line"/>
    </contour>
  </outline>
</glyph>
<glyph name="dollar" format="1">
  <advance width="690"/>
  <unicode hex="0024"/>
  <outline>
    <contour>
      <point x="313" y="416" type="line"/>
      <point x="257" y="416"/>
      <point x="189" y="424"/>
      <point x="144" y="450"/>
      <point x="121" y="505"/>
      <point x="121" y="551" type="qcurve" smooth="yes"/>
      <point x="121" y="599"/>
      <point x="143" y="652"/>
      <point x="189" y="675"/>
      <point x="251" y="680"/>
      <point x="313" y="680" type="qcurve"/>
    </contour>
    <contour>
      <point x="378" y="346" type="line"/>
      <point x="406" y="345" type="line" smooth="yes"/>
      <point x="460" y="343"/>
      <point x="516" y="336"/>
      <point x="557" y="311"/>
      <point x="577" y="256"/>
      <point x="577" y="207" type="qcurve" smooth="yes"/>
      <point x="577" y="158"/>
      <point x="556" y="103"/>
      <point x="511" y="77"/>
      <point x="442" y="70"/>
      <point x="378" y="70" type="qcurve"/>
    </contour>
    <contour>
      <point x="378" y="680" type="line"/>
      <point x="442" y="680"/>
      <point x="507" y="674"/>
      <point x="544" y="652"/>
      <point x="559" y="606"/>
      <point x="559" y="563" type="qcurve" smooth="yes"/>
      <point x="559" y="540" type="line"/>
      <point x="644" y="540" type="line"/>
      <point x="644" y="563" type="line" smooth="yes"/>
      <point x="644" y="629"/>
      <point x="612" y="705"/>
      <point x="548" y="740"/>
      <point x="458" y="750"/>
      <point x="378" y="750" type="qcurve"/>
      <point x="378" y="820" type="line"/>
      <point x="313" y="820" type="line"/>
      <point x="313" y="750" type="line"/>
      <point x="235" y="750"/>
      <point x="139" y="737"/>
      <point x="71" y="695"/>
      <point x="36" y="610"/>
      <point x="36" y="538" type="qcurve" smooth="yes"/>
      <point x="36" y="470"/>
      <point x="76" y="391"/>
      <point x="148" y="356"/>
      <point x="237" y="347"/>
      <point x="313" y="346" type="qcurve"/>
      <point x="313" y="70" type="line"/>
      <point x="238" y="70"/>
      <point x="161" y="81"/>
      <point x="124" y="109"/>
      <point x="115" y="157"/>
      <point x="115" y="207" type="qcurve" smooth="yes"/>
      <point x="115" y="233" type="line"/>
      <point x="30" y="233" type="line"/>
      <point x="30" y="207" type="line" smooth="yes"/>
      <point x="30" y="135"/>
      <point x="66" y="51"/>
      <point x="135" y="11"/>
      <point x="232" y="0"/>
      <point x="313" y="0" type="qcurve"/>
      <point x="313" y="-85" type="line"/>
      <point x="378" y="-85" type="line"/>
      <point x="378" y="0" type="line"/>
      <point x="459" y="0"/>
      <point x="562" y="16"/>
      <point x="629" y="61"/>
      <point x="662" y="147"/>
      <point x="662" y="218" type="qcurve" smooth="yes"/>
      <point x="662" y="287"/>
      <point x="622" y="369"/>
      <point x="551" y="405"/>
      <point x="464" y="414"/>
      <point x="390" y="416" type="qcurve" smooth="yes"/>
      <point x="378" y="416" type="line"/>
    </contour>
  </outline>
</glyph>
<glyph name="percent" format="1">
  <advance width="884"/>
  <unicode hex="0025"/>
  <outline>
    <contour>
      <point x="862" y="240" type="line" smooth="yes"/>
      <point x="861" y="285"/>
      <point x="842" y="338"/>
      <point x="803" y="366"/>
      <point x="744" y="375"/>
      <point x="696" y="375" type="qcurve" smooth="yes"/>
      <point x="649" y="375"/>
      <point x="592" y="365"/>
      <point x="556" y="338"/>
      <point x="538" y="285"/>
      <point x="537" y="239" type="qcurve" smooth="yes"/>
      <point x="537" y="129" type="line" smooth="yes"/>
      <point x="538" y="84"/>
      <point x="556" y="31"/>
      <point x="592" y="3"/>
      <point x="649" y="-6"/>
      <point x="697" y="-6" type="qcurve" smooth="yes"/>
      <point x="745" y="-6"/>
      <point x="804" y="4"/>
      <point x="842" y="32"/>
      <point x="861" y="85"/>
      <point x="862" y="130" type="qcurve" smooth="yes"/>
    </contour>
    <contour>
      <point x="731" y="750" type="line"/>
      <point x="661" y="750" type="line"/>
      <point x="155" y="-6" type="line"/>
      <point x="222" y="-6" type="line"/>
    </contour>
    <contour>
      <point x="802" y="132" type="line" smooth="yes"/>
      <point x="802" y="100"/>
      <point x="792" y="67"/>
      <point x="769" y="52"/>
      <point x="734" y="49"/>
      <point x="696" y="49" type="qcurve" smooth="yes"/>
      <point x="659" y="49"/>
      <point x="626" y="52"/>
      <point x="605" y="67"/>
      <point x="597" y="100"/>
      <point x="597" y="132" type="qcurve" smooth="yes"/>
      <point x="597" y="242" type="line" smooth="yes"/>
      <point x="597" y="272"/>
      <point x="605" y="303"/>
      <point x="626" y="317"/>
      <point x="659" y="320"/>
      <point x="696" y="320" type="qcurve" smooth="yes"/>
      <point x="736" y="320"/>
      <point x="771" y="317"/>
      <point x="793" y="303"/>
      <point x="802" y="272"/>
      <point x="802" y="242" type="qcurve" smooth="yes"/>
    </contour>
    <contour>
      <point x="347" y="621" type="line" smooth="yes"/>
      <point x="346" y="666"/>
      <point x="327" y="719"/>
      <point x="288" y="747"/>
      <point x="229" y="756"/>
      <point x="181" y="756" type="qcurve" smooth="yes"/>
      <point x="134" y="756"/>
      <point x="77" y="746"/>
      <point x="41" y="719"/>
      <point x="23" y="666"/>
      <point x="22" y="620" type="qcurve" smooth="yes"/>
      <point x="22" y="510" type="line" smooth="yes"/>
      <point x="23" y="465"/>
      <point x="41" y="412"/>
      <point x="77" y="384"/>
      <point x="134" y="375"/>
      <point x="182" y="375" type="qcurve" smooth="yes"/>
      <point x="230" y="375"/>
      <point x="289" y="385"/>
      <point x="327" y="413"/>
      <point x="346" y="466"/>
      <point x="347" y="511" type="qcurve" smooth="yes"/>
    </contour>
    <contour>
      <point x="287" y="513" type="line" smooth="yes"/>
      <point x="287" y="481"/>
      <point x="277" y="448"/>
      <point x="254" y="433"/>
      <point x="219" y="430"/>
      <point x="181" y="430" type="qcurve" smooth="yes"/>
      <point x="144" y="430"/>
      <point x="111" y="433"/>
      <point x="90" y="448"/>
      <point x="82" y="481"/>
      <point x="82" y="513" type="qcurve" smooth="yes"/>
      <point x="82" y="623" type="line" smooth="yes"/>
      <point x="82" y="653"/>
      <point x="90" y="684"/>
      <point x="111" y="698"/>
      <point x="144" y="701"/>
      <point x="181" y="701" type="qcurve" smooth="yes"/>
      <point x="221" y="701"/>
      <point x="256" y="698"/>
      <point x="278" y="684"/>
      <point x="287" y="653"/>
      <point x="287" y="623" type="qcurve" smooth="yes"/>
    </contour>
  </outline>
</glyph>
<glyph name="asterisk" format="1">
  <advance width="690"/>
  <unicode hex="002A"/>
  <outline>
    <contour>
      <point x="545" y="589" type="line"/>
      <point x="526" y="645" type="line"/>
      <point x="373" y="588" type="line"/>
      <point x="373" y="750" type="line"/>
      <point x="318" y="750" type="line"/>
      <point x="318" y="588" type="line"/>
      <point x="164" y="645" type="line"/>
      <point x="145" y="591" type="line"/>
      <point x="298" y="533" type="line"/>
      <point x="202" y="402" type="line"/>
      <point x="246" y="369" type="line"/>
      <point x="346" y="504" type="line"/>
      <point x="439" y="369" type="line"/>
      <point x="483" y="402" type="line"/>
      <point x="391" y="533" type="line"/>
    </contour>
  </outline>
</glyph>
<glyph name="plus" format="1">
  <advance width="584"/>
  <unicode hex="002B"/>
  <outline>
    <contour>
      <point x="255" y="525" type="line"/>
      <point x="255" y="321" type="line"/>
      <point x="50" y="321" type="line"/>
      <point x="50" y="246" type="line"/>
      <point x="255" y="246" type="line"/>
      <point x="255" y="41" type="line"/>
      <point x="330" y="41" type="line"/>
      <point x="330" y="246" type="line"/>
      <point x="534" y="246" type="line"/>
      <point x="534" y="321" type="line"/>
      <point x="330" y="321" type="line"/>
      <point x="330" y="525" type="line"/>
    </contour>
  </outline>
</glyph>
<glyph name="comma" format="1">
  <advance width="345"/>
  <unicode hex="002C"/>
  <outline>
    <contour>
      <point x="159" y="0" type="line"/>
      <point x="159" y="-19" type="line" smooth="yes"/>
      <point x="159" y="-46"/>
      <point x="138" y="-66"/>
      <point x="110" y="-67" type="qcurve"/>
      <point x="110" y="-112" type="line"/>
      <point x="133" y="-112" type="line" smooth="yes"/>
      <point x="179" y="-112"/>
      <point x="210" y="-65"/>
      <point x="210" y="-19" type="qcurve" smooth="yes"/>
      <point x="210" y="102" type="line"/>
      <point x="121" y="102" type="line"/>
      <point x="121" y="0" type="line"/>
    </contour>
  </outline>
</glyph>
<glyph name="period" format="1">
  <advance width="345"/>
  <unicode hex="002E"/>
  <outline>
    <contour>
      <point x="199" y="102" type="line"/>
      <point x="110" y="102" type="line"/>
      <point x="110" y="0" type="line"/>
      <point x="199" y="0" type="line"/>
    </contour>
  </outline>
</glyph>
<glyph name="slash" format="1">
  <advance width="727"/>
  <unicode hex="002F"/>
  <outline>
    <contour>
      <point x="699" y="750" type="line"/>
      <point x="606" y="750" type="line"/>
      <point x="28" y="-113" type="line"/>
      <point x="119" y="-113" type="line"/>
    </contour>
  </outline>
</glyph>
<glyph name="two" format="1">
  <advance width="690"/>
  <unicode hex="0032"/>
  <outline>
    <contour>
      <point x="612" y="75" type="line"/>
      <point x="157" y="75" type="line"/>
      <point x="157" y="139" type="line" smooth="yes"/>
      <point x="157" y="182"/>
      <point x="175" y="231"/>
      <point x="218" y="259"/>
      <point x="290" y="274"/>
      <point x="355" y="279" type="qcurve" smooth="yes"/>
      <point x="433" y="285"/>
      <point x="527" y="307"/>
      <point x="586" y="355"/>
      <point x="614" y="445"/>
      <point x="614" y="519" type="qcurve" smooth="yes"/>
      <point x="614" y="592"/>
      <point x="588" y="683"/>
      <point x="529" y="735"/>
      <point x="431" y="756"/>
      <point x="353" y="756" type="qcurve" smooth="yes"/>
      <point x="255" y="756"/>
      <point x="143" y="732"/>
      <point x="89" y="681"/>
      <point x="72" y="601"/>
      <point x="72" y="532" type="qcurve" smooth="yes"/>
      <point x="72" y="493" type="line"/>
      <point x="157" y="493" type="line"/>
      <point x="157" y="532" type="line" smooth="yes"/>
      <point x="157" y="587"/>
      <point x="171" y="644"/>
      <point x="211" y="673"/>
      <point x="282" y="681"/>
      <point x="353" y="681" type="qcurve" smooth="yes"/>
      <point x="414" y="681"/>
      <point x="476" y="673"/>
      <point x="514" y="643"/>
      <point x="529" y="578"/>
      <point x="529" y="519" type="qcurve" smooth="yes"/>
      <point x="529" y="463"/>
      <point x="515" y="403"/>
      <point x="480" y="374"/>
      <point x="425" y="363"/>
      <point x="363" y="357" type="qcurve" smooth="yes"/>
      <point x="335" y="354" type="line" smooth="yes"/>
      <point x="255" y="346"/>
      <point x="165" y="327"/>
      <point x="103" y="284"/>
      <point x="72" y="199"/>
      <point x="72" y="127" type="qcurve" smooth="yes"/>
      <point x="72" y="0" type="line"/>
      <point x="612" y="0" type="line"/>
    </contour>
  </outline>
</glyph>
<glyph name="three" format="1">
  <advance width="690"/>
  <unicode hex="0033"/>
  <outline>
    <contour>
      <point x="275" y="347" type="line"/>
      <point x="364" y="347" type="line" smooth="yes"/>
      <point x="414" y="347"/>
      <point x="469" y="342"/>
      <point x="510" y="319"/>
      <point x="531" y="267"/>
      <point x="531" y="221" type="qcurve" smooth="yes"/>
      <point x="531" y="167"/>
      <point x="520" y="110"/>
      <point x="488" y="79"/>
      <point x="428" y="69"/>
      <point x="373" y="69" type="qcurve" smooth="yes"/>
      <point x="366" y="69"/>
      <point x="350" y="69" type="qcurve" smooth="yes"/>
      <point x="325" y="69"/>
      <point x="324" y="69" type="qcurve" smooth="yes"/>
      <point x="256" y="70"/>
      <point x="191" y="77"/>
      <point x="155" y="100"/>
      <point x="143" y="146"/>
      <point x="143" y="193" type="qcurve" smooth="yes"/>
      <point x="143" y="243" type="line"/>
      <point x="58" y="243" type="line"/>
      <point x="58" y="193" type="line" smooth="yes"/>
      <point x="58" y="129"/>
      <point x="93" y="49"/>
      <point x="159" y="8"/>
      <point x="254" y="-6"/>
      <point x="324" y="-6" type="qcurve" smooth="yes"/>
      <point x="410" y="-6"/>
      <point x="510" y="5"/>
      <point x="580" y="45"/>
      <point x="616" y="134"/>
      <point x="616" y="212" type="qcurve" smooth="yes"/>
      <point x="616" y="299"/>
      <point x="559" y="378"/>
      <point x="477" y="384" type="qcurve"/>
      <point x="477" y="386" type="line"/>
      <point x="517" y="389"/>
      <point x="567" y="417"/>
      <point x="592" y="462"/>
      <point x="601" y="521"/>
      <point x="601" y="561" type="qcurve" smooth="yes"/>
      <point x="601" y="631"/>
      <point x="564" y="711"/>
      <point x="496" y="747"/>
      <point x="413" y="755"/>
      <point x="336" y="756" type="qcurve" smooth="yes"/>
      <point x="332" y="756" type="line" smooth="yes"/>
      <point x="257" y="756"/>
      <point x="165" y="745"/>
      <point x="101" y="705"/>
      <point x="68" y="623"/>
      <point x="68" y="552" type="qcurve" smooth="yes"/>
      <point x="68" y="520" type="line"/>
      <point x="153" y="520" type="line"/>
      <point x="153" y="552" type="line" smooth="yes"/>
      <point x="155" y="599"/>
      <point x="168" y="648"/>
      <point x="201" y="673"/>
      <point x="263" y="681"/>
      <point x="321" y="681" type="qcurve" smooth="yes"/>
      <point x="393" y="681"/>
      <point x="466" y="673"/>
      <point x="504" y="647"/>
      <point x="516" y="596"/>
      <point x="516" y="546" type="qcurve" smooth="yes"/>
      <point x="516" y="501"/>
      <point x="500" y="451"/>
      <point x="468" y="429"/>
      <point x="423" y="423"/>
      <point x="378" y="422" type="qcurve" smooth="yes"/>
      <point x="364" y="422" type="line"/>
      <point x="275" y="422" type="line"/>
    </contour>
  </outline>
</glyph>
<glyph name="four" format="1">
  <advance width="690"/>
  <unicode hex="0034"/>
  <outline>
    <contour>
      <point x="537" y="750" type="line"/>
      <point x="407" y="750" type="line"/>
      <point x="30" y="272" type="line"/>
      <point x="30" y="171" type="line"/>
      <point x="452" y="171" type="line"/>
      <point x="452" y="0" type="line"/>
      <point x="537" y="0" type="line"/>
      <point x="537" y="171" type="line"/>
      <point x="646" y="171" type="line"/>
      <point x="646" y="246" type="line"/>
      <point x="537" y="246" type="line"/>
    </contour>
    <contour>
      <point x="452" y="246" type="line"/>
      <point x="100" y="246" type="line"/>
      <point x="450" y="695" type="line"/>
      <point x="452" y="695" type="line"/>
    </contour>
  </outline>
</glyph>
<glyph name="eight" format="1">
  <advance width="690"/>
  <unicode hex="0038"/>
  <outline>
    <contour>
      <point x="195" y="389" type="line"/>
      <point x="151" y="382"/>
      <point x="98" y="354"/>
      <point x="73" y="311"/>
      <point x="65" y="253"/>
      <point x="65" y="207" type="qcurve" smooth="yes"/>
      <point x="65" y="130"/>
      <point x="100" y="42"/>
      <point x="168" y="3"/>
      <point x="260" y="-6"/>
      <point x="345" y="-6" type="qcurve" smooth="yes"/>
      <point x="434" y="-6"/>
      <point x="536" y="8"/>
      <point x="599" y="51"/>
      <point x="625" y="134"/>
      <point x="625" y="207" type="qcurve" smooth="yes"/>
      <point x="625" y="299"/>
      <point x="572" y="377"/>
      <point x="497" y="389" type="qcurve"/>
      <point x="497" y="390" type="line"/>
      <point x="573" y="403"/>
      <point x="616" y="480"/>
      <point x="616" y="562" type="qcurve" smooth="yes"/>
      <point x="616" y="631"/>
      <point x="583" y="710"/>
      <point x="517" y="747"/>
      <point x="425" y="756"/>
      <point x="345" y="756" type="qcurve" smooth="yes"/>
      <point x="265" y="756"/>
      <point x="171" y="746"/>
      <point x="107" y="710"/>
      <point x="75" y="630"/>
      <point x="75" y="562" type="qcurve" smooth="yes"/>
      <point x="75" y="517"/>
      <point x="85" y="461"/>
      <point x="110" y="422"/>
      <point x="156" y="398"/>
      <point x="195" y="391" type="qcurve"/>
    </contour>
    <contour>
      <point x="160" y="562" type="qcurve" smooth="yes"/>
      <point x="160" y="606"/>
      <point x="171" y="650"/>
      <point x="206" y="673"/>
      <point x="276" y="681"/>
      <point x="345" y="681" type="qcurve" smooth="yes"/>
      <point x="413" y="681"/>
      <point x="485" y="672"/>
      <point x="520" y="648"/>
      <point x="531" y="605"/>
      <point x="531" y="562" type="qcurve" smooth="yes"/>
      <point x="531" y="513"/>
      <point x="520" y="463"/>
      <point x="484" y="435"/>
      <point x="412" y="424"/>
      <point x="345" y="424" type="qcurve" smooth="yes"/>
      <point x="278" y="424"/>
      <point x="206" y="435"/>
      <point x="170" y="464"/>
      <point x="160" y="515"/>
    </contour>
    <contour>
      <point x="150" y="207" type="qcurve" smooth="yes"/>
      <point x="150" y="259"/>
      <point x="165" y="314"/>
      <point x="204" y="341"/>
      <point x="275" y="349"/>
      <point x="345" y="349" type="qcurve" smooth="yes"/>
      <point x="414" y="349"/>
      <point x="488" y="339"/>
      <point x="527" y="311"/>
      <point x="540" y="258"/>
      <point x="540" y="207" type="qcurve" smooth="yes"/>
      <point x="540" y="163"/>
      <point x="526" y="112"/>
      <point x="486" y="82"/>
      <point x="410" y="69"/>
      <point x="345" y="69" type="qcurve" smooth="yes"/>
      <point x="272" y="70"/>
      <point x="197" y="80"/>
      <point x="160" y="107"/>
      <point x="150" y="156"/>
    </contour>
  </outline>
</glyph>
<glyph name="colon" format="1">
  <advance width="345"/>
  <unicode hex="003A"/>
  <outline>
    <contour>
      <point x="199" y="102" type="line"/>
      <point x="110" y="102" type="line"/>
      <point x="110" y="0" type="line"/>
      <point x="199" y="0" type="line"/>
    </contour>
    <contour>
      <point x="199" y="525" type="line"/>
      <point x="110" y="525" type="line"/>
      <point x="110" y="423" type="line"/>
      <point x="199" y="423" type="line"/>
    </contour>
  </outline>
</glyph>
<glyph name="equal" format="1">
  <advance width="584"/>
  <unicode hex="003D"/>
  <outline>
    <contour>
      <point x="50" y="399" type="line"/>
      <point x="50" y="324" type="line"/>
      <point x="534" y="324" type="line"/>
      <point x="534" y="399" type="line"/>
    </contour>
    <contour>
      <point x="50" y="244" type="line"/>
      <point x="50" y="169" type="line"/>
      <point x="534" y="169" type="line"/>
      <point x="534" y="244" type="line"/>
    </contour>
  </outline>
</glyph>
<glyph name="question" format="1">
  <advance width="584"/>
  <unicode hex="003F"/>
  <outline>
    <contour>
      <point x="299" y="214" type="line"/>
      <point x="299" y="241" type="line" smooth="yes"/>
      <point x="299" y="264"/>
      <point x="306" y="290"/>
      <point x="326" y="307"/>
      <point x="358" y="320"/>
      <point x="397" y="334" type="qcurve" smooth="yes"/>
      <point x="442" y="350"/>
      <point x="495" y="389"/>
      <point x="520" y="440"/>
      <point x="528" y="504"/>
      <point x="528" y="556" type="qcurve" smooth="yes"/>
      <point x="528" y="617"/>
      <point x="502" y="695"/>
      <point x="448" y="738"/>
      <point x="362" y="756"/>
      <point x="298" y="756" type="qcurve" smooth="yes"/>
      <point x="229" y="756"/>
      <point x="146" y="743"/>
      <point x="88" y="704"/>
      <point x="59" y="624"/>
      <point x="57" y="556" type="qcurve" smooth="yes"/>
      <point x="57" y="513" type="line"/>
      <point x="137" y="513" type="line"/>
      <point x="137" y="556" type="line" smooth="yes"/>
      <point x="137" y="601"/>
      <point x="152" y="651"/>
      <point x="188" y="675"/>
      <point x="245" y="681"/>
      <point x="298" y="681" type="qcurve" smooth="yes"/>
      <point x="348" y="681"/>
      <point x="404" y="673"/>
      <point x="435" y="648"/>
      <point x="448" y="599"/>
      <point x="448" y="556" type="qcurve" smooth="yes"/>
      <point x="448" y="511"/>
      <point x="442" y="462"/>
      <point x="423" y="434"/>
      <point x="391" y="416"/>
      <point x="355" y="401" type="qcurve" smooth="yes"/>
      <point x="308" y="384"/>
      <point x="257" y="358"/>
      <point x="226" y="325"/>
      <point x="214" y="278"/>
      <point x="214" y="241" type="qcurve" smooth="yes"/>
      <point x="214" y="214" type="line"/>
    </contour>
    <contour>
      <point x="301" y="102" type="line"/>
      <point x="212" y="102" type="line"/>
      <point x="212" y="0" type="line"/>
      <point x="301" y="0" type="line"/>
    </contour>
  </outline>
</glyph>
<glyph name="at" format="1">
  <advance width="990"/>
  <unicode hex="0040"/>
  <outline>
    <contour>
      <point x="644" y="550" type="line"/>
      <point x="626" y="493" type="line"/>
      <point x="624" y="493" type="line"/>
      <point x="616" y="526"/>
      <point x="551" y="570"/>
      <point x="512" y="570" type="qcurve" smooth="yes"/>
      <point x="468" y="568"/>
      <point x="391" y="527"/>
      <point x="333" y="460"/>
      <point x="299" y="377"/>
      <point x="296" y="334" type="qcurve" smooth="yes"/>
      <point x="296" y="265"/>
      <point x="374" y="168"/>
      <point x="440" y="168" type="qcurve" smooth="yes"/>
      <point x="476" y="168"/>
      <point x="528" y="200"/>
      <point x="559" y="231" type="qcurve"/>
      <point x="564" y="196"/>
      <point x="619" y="166"/>
      <point x="657" y="166" type="qcurve" smooth="yes"/>
      <point x="710" y="166"/>
      <point x="798" y="217"/>
      <point x="858" y="302"/>
      <point x="890" y="406"/>
      <point x="890" y="457" type="qcurve" smooth="yes"/>
      <point x="890" y="526"/>
      <point x="823" y="638"/>
      <point x="710" y="716"/>
      <point x="576" y="756"/>
      <point x="509" y="756" type="qcurve" smooth="yes"/>
      <point x="431" y="756"/>
      <point x="284" y="692"/>
      <point x="170" y="579"/>
      <point x="103" y="432"/>
      <point x="100" y="352" type="qcurve" smooth="yes"/>
      <point x="100" y="272"/>
      <point x="163" y="140"/>
      <point x="274" y="44"/>
      <point x="417" y="-6"/>
      <point x="495" y="-6" type="qcurve" smooth="yes"/>
      <point x="589" y="-5"/>
      <point x="686" y="31" type="qcurve"/>
      <point x="661" y="89" type="line"/>
      <point x="619" y="76"/>
      <point x="536" y="60"/>
      <point x="493" y="59" type="qcurve" smooth="yes"/>
      <point x="432" y="59"/>
      <point x="318" y="100"/>
      <point x="230" y="176"/>
      <point x="178" y="282"/>
      <point x="175" y="344" type="qcurve" smooth="yes"/>
      <point x="175" y="411"/>
      <point x="229" y="537"/>
      <point x="324" y="635"/>
      <point x="445" y="691"/>
      <point x="510" y="691" type="qcurve" smooth="yes"/>
      <point x="565" y="691"/>
      <point x="675" y="657"/>
      <point x="766" y="593"/>
      <point x="820" y="503"/>
      <point x="820" y="450" type="qcurve" smooth="yes"/>
      <point x="820" y="414"/>
      <point x="802" y="336"/>
      <point x="767" y="268"/>
      <point x="714" y="226"/>
      <point x="680" y="226" type="qcurve" smooth="yes"/>
      <point x="624" y="226"/>
      <point x="624" y="257" type="qcurve" smooth="yes"/>
      <point x="624" y="263"/>
      <point x="626" y="270" type="qcurve" smooth="yes"/>
      <point x="715" y="550" type="line"/>
    </contour>
    <contour>
      <point x="594" y="445" type="qcurve" smooth="yes"/>
      <point x="594" y="443"/>
      <point x="594" y="440" type="qcurve" smooth="yes"/>
      <point x="595" y="434"/>
      <point x="595" y="434" type="qcurve"/>
      <point x="595" y="405"/>
      <point x="576" y="333"/>
      <point x="540" y="267"/>
      <point x="491" y="224"/>
      <point x="461" y="224" type="qcurve" smooth="yes"/>
      <point x="422" y="224"/>
      <point x="371" y="291"/>
      <point x="371" y="331" type="qcurve" smooth="yes"/>
      <point x="373" y="361"/>
      <point x="394" y="424"/>
      <point x="432" y="478"/>
      <point x="485" y="510"/>
      <point x="517" y="510" type="qcurve" smooth="yes"/>
      <point x="548" y="510"/>
      <point x="591" y="476"/>
    </contour>
  </outline>
</glyph>
<glyph name="E" format="1">
  <advance width="560"/>
  <unicode hex="0045"/>
  <outline>
    <contour>
      <point x="126" y="675" type="line"/>
      <point x="523" y="675" type="line"/>
      <point x="523" y="750" type="line"/>
      <point x="41" y="750" type="line"/>
      <point x="41" y="0" type="line"/>
      <point x="523" y="0" type="line"/>
      <point x="523" y="75" type="line"/>
      <point x="126" y="75" type="line"/>
      <point x="126" y="350" type="line"/>
      <point x="506" y="350" type="line"/>
      <point x="506" y="420" type="line"/>
      <point x="126" y="420" type="line"/>
    </contour>
  </outline>
</glyph>
<glyph name="L" format="1">
  <advance width="558"/>
  <unicode hex="004C"/>
  <outline>
    <contour>
      <point x="160" y="750" type="line"/>
      <point x="75" y="750" type="line"/>
      <point x="75" y="0" type="line"/>
      <point x="542" y="0" type="line"/>
      <point x="542" y="75" type="line"/>
      <point x="160" y="75" type="line"/>
    </contour>
  </outline>
</glyph>
<glyph name="S" format="1">
  <advance width="629"/>
  <unicode hex="0053"/>
  <outline>
    <contour>
      <point x="311" y="346" type="qcurve" smooth="yes"/>
      <point x="333" y="344"/>
      <point x="370" y="343" type="qcurve" smooth="yes"/>
      <point x="414" y="341"/>
      <point x="462" y="334"/>
      <point x="495" y="311"/>
      <point x="512" y="261"/>
      <point x="512" y="216" type="qcurve" smooth="yes"/>
      <point x="512" y="161"/>
      <point x="493" y="101"/>
      <point x="449" y="75"/>
      <point x="381" y="69"/>
      <point x="308" y="69" type="qcurve" smooth="yes"/>
      <point x="238" y="69"/>
      <point x="175" y="76"/>
      <point x="135" y="105"/>
      <point x="119" y="170"/>
      <point x="119" y="234" type="qcurve"/>
      <point x="34" y="234" type="line"/>
      <point x="32" y="211"/>
      <point x="32" y="191" type="qcurve" smooth="yes"/>
      <point x="32" y="126"/>
      <point x="68" y="47"/>
      <point x="136" y="7"/>
      <point x="234" y="-6"/>
      <point x="308" y="-6" type="qcurve" smooth="yes"/>
      <point x="393" y="-6"/>
      <point x="490" y="5"/>
      <point x="561" y="46"/>
      <point x="597" y="135"/>
      <point x="597" y="213" type="qcurve" smooth="yes"/>
      <point x="597" y="284"/>
      <point x="567" y="365"/>
      <point x="508" y="404"/>
      <point x="429" y="416"/>
      <point x="353" y="420" type="qcurve" smooth="yes"/>
      <point x="336" y="421"/>
      <point x="329" y="421" type="qcurve" smooth="yes"/>
      <point x="304" y="422"/>
      <point x="295" y="422" type="qcurve" smooth="yes"/>
      <point x="241" y="423"/>
      <point x="183" y="429"/>
      <point x="142" y="454"/>
      <point x="121" y="508"/>
      <point x="121" y="556" type="qcurve" smooth="yes"/>
      <point x="121" y="598"/>
      <point x="134" y="644"/>
      <point x="172" y="671"/>
      <point x="245" y="681"/>
      <point x="310" y="681" type="qcurve" smooth="yes"/>
      <point x="378" y="681"/>
      <point x="444" y="674"/>
      <point x="481" y="649"/>
      <point x="496" y="597"/>
      <point x="498" y="545" type="qcurve"/>
      <point x="583" y="545" type="line"/>
      <point x="583" y="545"/>
      <point x="583" y="556" type="qcurve" smooth="yes"/>
      <point x="584" y="563"/>
      <point x="584" y="566" type="qcurve" smooth="yes"/>
      <point x="584" y="633"/>
      <point x="545" y="711"/>
      <point x="474" y="746"/>
      <point x="385" y="756"/>
      <point x="313" y="756" type="qcurve" smooth="yes"/>
      <point x="234" y="756"/>
      <point x="137" y="743"/>
      <point x="70" y="700"/>
      <point x="36" y="612"/>
      <point x="36" y="538" type="qcurve" smooth="yes"/>
      <point x="36" y="475"/>
      <point x="69" y="400"/>
      <point x="129" y="364"/>
      <point x="199" y="353"/>
      <point x="261" y="349" type="qcurve" smooth="yes"/>
      <point x="300" y="347"/>
    </contour>
  </outline>
</glyph>
<glyph name="V" format="1">
  <advance width="643"/>
  <unicode hex="0056"/>
  <outline>
    <contour>
      <point x="558" y="750" type="line"/>
      <point x="324" y="65" type="line"/>
      <point x="321" y="65" type="line"/>
      <point x="85" y="750" type="line"/>
      <point x="-6" y="750" type="line"/>
      <point x="262" y="0" type="line"/>
      <point x="383" y="0" type="line"/>
      <point x="649" y="750" type="line"/>
    </contour>
  </outline>
</glyph>
<glyph name="Y" format="1">
  <advance width="632"/>
  <unicode hex="0059"/>
  <outline>
    <contour>
      <point x="638" y="750" type="line"/>
      <point x="537" y="750" type="line"/>
      <point x="315" y="399" type="line"/>
      <point x="93" y="750" type="line"/>
      <point x="-6" y="750" type="line"/>
      <point x="269" y="313" type="line"/>
      <point x="269" y="0" type="line"/>
      <point x="354" y="0" type="line"/>
      <point x="354" y="313" type="line"/>
    </contour>
  </outline>
</glyph>
<glyph name="Z" format="1">
  <advance width="637"/>
  <unicode hex="005A"/>
  <outline>
    <contour>
      <point x="601" y="750" type="line"/>
      <point x="40" y="750" type="line"/>
      <point x="40" y="675" type="line"/>
      <point x="497" y="675" type="line"/>
      <point x="26" y="74" type="line"/>
      <point x="26" y="0" type="line"/>
      <point x="611" y="0" type="line"/>
      <point x="611" y="75" type="line"/>
      <point x="129" y="75" type="line"/>
      <point x="601" y="671" type="line"/>
    </contour>
  </outline>
</glyph>
<glyph name="bracketright" format="1">
  <advance width="311"/>
  <unicode hex="005D"/>
  <outline>
    <contour>
      <point x="256" y="-150" type="line"/>
      <point x="256" y="756" type="line"/>
      <point x="62" y="756" type="line"/>
      <point x="62" y="681" type="line"/>
      <point x="171" y="681" type="line"/>
      <point x="171" y="-75" type="line"/>
      <point x="62" y="-75" type="line"/>
      <point x="62" y="-150" type="line"/>
    </contour>
  </outline>
</glyph>
<glyph name="asciicircum" format="1">
  <advance width="584"/>
  <unicode hex="005E"/>
  <outline>
    <contour>
      <point x="257" y="750" type="line"/>
      <point x="50" y="261" type="line"/>
      <point x="130" y="261" type="line"/>
      <point x="292" y="652" type="line"/>
      <point x="454" y="261" type="line"/>
      <point x="534" y="261" type="line"/>
      <point x="327" y="750" type="line"/>
    </contour>
  </outline>
</glyph>
<glyph name="grave" format="1">
  <advance width="338"/>
  <unicode hex="0060"/>
  <outline>
    <contour>
      <point x="115" y="743" type="line"/>
      <point x="75" y="689" type="line"/>
      <point x="237" y="589" type="line"/>
      <point x="263" y="630" type="line"/>
    </contour>
  </outline>
</glyph>
<glyph name="b" format="1">
  <advance width="574"/>
  <unicode hex="0062"/>
  <outline>
    <contour>
      <point x="441" y="262" type="qcurve" smooth="yes"/>
      <point x="441" y="199"/>
      <point x="434" y="129"/>
      <point x="407" y="81"/>
      <point x="348" y="58"/>
      <point x="296" y="58" type="qcurve" smooth="yes"/>
      <point x="250" y="58"/>
      <point x="195" y="75"/>
      <point x="163" y="118"/>
      <point x="149" y="197"/>
      <point x="149" y="262" type="qcurve" smooth="yes"/>
      <point x="149" y="326"/>
      <point x="157" y="398"/>
      <point x="185" y="445"/>
      <point x="244" y="467"/>
      <point x="296" y="467" type="qcurve" smooth="yes"/>
      <point x="346" y="467"/>
      <point x="401" y="451"/>
      <point x="431" y="407"/>
      <point x="441" y="330"/>
    </contour>
    <contour>
      <point x="68" y="0" type="line"/>
      <point x="147" y="0" type="line"/>
      <point x="147" y="62" type="line"/>
      <point x="149" y="64" type="line"/>
      <point x="169" y="25"/>
      <point x="257" y="-6"/>
      <point x="318" y="-6" type="qcurve" smooth="yes"/>
      <point x="385" y="-6"/>
      <point x="467" y="29"/>
      <point x="509" y="96"/>
      <point x="523" y="190"/>
      <point x="523" y="262" type="qcurve" smooth="yes"/>
      <point x="523" y="331"/>
      <point x="508" y="425"/>
      <point x="466" y="494"/>
      <point x="384" y="531"/>
      <point x="318" y="531" type="qcurve" smooth="yes"/>
      <point x="291" y="531"/>
      <point x="241" y="526"/>
      <point x="195" y="511"/>
      <point x="158" y="481"/>
      <point x="149" y="457" type="qcurve"/>
      <point x="147" y="457" type="line"/>
      <point x="147" y="750" type="line"/>
      <point x="68" y="750" type="line"/>
    </contour>
  </outline>
</glyph>
<glyph name="d" format="1">
  <advance width="574"/>
  <unicode hex="0064"/>
  <outline>
    <contour>
      <point x="280" y="58" type="qcurve" smooth="yes"/>
      <point x="234" y="58"/>
      <point x="180" y="72"/>
      <point x="146" y="113"/>
      <point x="131" y="193"/>
      <point x="131" y="262" type="qcurve" smooth="yes"/>
      <point x="131" y="333"/>
      <point x="144" y="413"/>
      <point x="176" y="454"/>
      <point x="231" y="467"/>
      <point x="280" y="467" type="qcurve" smooth="yes"/>
      <point x="328" y="467"/>
      <point x="386" y="443"/>
      <point x="416" y="395"/>
      <point x="426" y="322"/>
      <point x="426" y="262" type="qcurve" smooth="yes"/>
      <point x="426" y="198"/>
      <point x="414" y="121"/>
      <point x="384" y="77"/>
      <point x="327" y="58"/>
    </contour>
    <contour>
      <point x="426" y="0" type="line"/>
      <point x="505" y="0" type="line"/>
      <point x="505" y="750" type="line"/>
      <point x="426" y="750" type="line"/>
      <point x="426" y="460" type="line"/>
      <point x="424" y="460" type="line"/>
      <point x="416" y="483"/>
      <point x="379" y="512"/>
      <point x="331" y="526"/>
      <point x="282" y="531"/>
      <point x="255" y="531" type="qcurve" smooth="yes"/>
      <point x="187" y="531"/>
      <point x="103" y="493"/>
      <point x="62" y="423"/>
      <point x="49" y="330"/>
      <point x="49" y="262" type="qcurve" smooth="yes"/>
      <point x="49" y="194"/>
      <point x="62" y="101"/>
      <point x="104" y="31"/>
      <point x="187" y="-6"/>
      <point x="255" y="-6" type="qcurve" smooth="yes"/>
      <point x="317" y="-6"/>
      <point x="403" y="25"/>
      <point x="424" y="68" type="qcurve"/>
      <point x="426" y="66" type="line"/>
    </contour>
  </outline>
</glyph>
<glyph name="f" format="1">
  <advance width="302"/>
  <unicode hex="0066"/>
  <outline>
    <contour>
      <point x="167" y="525" type="line"/>
      <point x="167" y="596" type="line" smooth="yes"/>
      <point x="167" y="652"/>
      <point x="201" y="692"/>
      <point x="257" y="692" type="qcurve" smooth="yes"/>
      <point x="274" y="692"/>
      <point x="306" y="690" type="qcurve"/>
      <point x="306" y="754" type="line"/>
      <point x="274" y="756"/>
      <point x="257" y="756" type="qcurve" smooth="yes"/>
      <point x="160" y="756"/>
      <point x="88" y="684"/>
      <point x="88" y="588" type="qcurve" smooth="yes"/>
      <point x="88" y="525" type="line"/>
      <point x="8" y="525" type="line"/>
      <point x="8" y="461" type="line"/>
      <point x="88" y="461" type="line"/>
      <point x="88" y="0" type="line"/>
      <point x="167" y="0" type="line"/>
      <point x="167" y="461" type="line"/>
      <point x="306" y="461" type="line"/>
      <point x="306" y="525" type="line"/>
    </contour>
  </outline>
</glyph>
<glyph name="g" format="1">
  <advance width="573"/>
  <unicode hex="0067"/>
  <outline>
    <contour>
      <point x="277" y="58" type="qcurve" smooth="yes"/>
      <point x="226" y="58"/>
      <point x="168" y="82"/>
      <point x="141" y="130"/>
      <point x="133" y="201"/>
      <point x="133" y="262" type="qcurve" smooth="yes"/>
      <point x="133" y="327"/>
      <point x="139" y="395"/>
      <point x="166" y="443"/>
      <point x="225" y="467"/>
      <point x="277" y="467" type="qcurve" smooth="yes"/>
      <point x="330" y="467"/>
      <point x="391" y="444"/>
      <point x="420" y="396"/>
      <point x="429" y="325"/>
      <point x="429" y="262" type="qcurve" smooth="yes"/>
      <point x="429" y="205"/>
      <point x="423" y="140"/>
      <point x="395" y="88"/>
      <point x="332" y="58"/>
    </contour>
    <contour>
      <point x="508" y="525" type="line"/>
      <point x="429" y="525" type="line"/>
      <point x="429" y="459" type="line"/>
      <point x="427" y="458" type="line"/>
      <point x="406" y="501"/>
      <point x="322" y="531"/>
      <point x="258" y="531" type="qcurve" smooth="yes"/>
      <point x="192" y="531"/>
      <point x="109" y="497"/>
      <point x="67" y="430"/>
      <point x="51" y="335"/>
      <point x="51" y="262" type="qcurve" smooth="yes"/>
      <point x="51" y="119"/>
      <point x="136" y="-6"/>
      <point x="258" y="-6" type="qcurve" smooth="yes"/>
      <point x="287" y="-6"/>
      <point x="336" y="-1"/>
      <point x="383" y="13"/>
      <point x="419" y="43"/>
      <point x="427" y="65" type="qcurve"/>
      <point x="429" y="65" type="line"/>
      <point x="429" y="-56" type="line" smooth="yes"/>
      <point x="429" y="-94"/>
      <point x="408" y="-139"/>
      <point x="370" y="-162"/>
      <point x="317" y="-169"/>
      <point x="277" y="-169" type="qcurve" smooth="yes"/>
      <point x="241" y="-169"/>
      <point x="196" y="-163"/>
      <point x="163" y="-143"/>
      <point x="146" y="-99"/>
      <point x="146" y="-62" type="qcurve"/>
      <point x="67" y="-62" type="line"/>
      <point x="67" y="-62"/>
      <point x="67" y="-71" type="qcurve" smooth="yes"/>
      <point x="67" y="-77"/>
      <point x="67" y="-79" type="qcurve" smooth="yes"/>
      <point x="67" y="-129"/>
      <point x="98" y="-191"/>
      <point x="154" y="-222"/>
      <point x="227" y="-233"/>
      <point x="277" y="-233" type="qcurve" smooth="yes"/>
      <point x="329" y="-233"/>
      <point x="410" y="-218"/>
      <point x="473" y="-180"/>
      <point x="508" y="-113"/>
      <point x="508" y="-62" type="qcurve" smooth="yes"/>
    </contour>
  </outline>
</glyph>
<glyph name="k" format="1">
  <advance width="487"/>
  <unicode hex="006B"/>
  <outline>
    <contour>
      <point x="147" y="750" type="line"/>
      <point x="68" y="750" type="line"/>
      <point x="68" y="0" type="line"/>
      <point x="147" y="0" type="line"/>
      <point x="147" y="252" type="line"/>
      <point x="179" y="252" type="line"/>
      <point x="402" y="0" type="line"/>
      <point x="506" y="0" type="line"/>
      <point x="240" y="284" type="line"/>
      <point x="465" y="525" type="line"/>
      <point x="368" y="525" type="line"/>
      <point x="179" y="316" type="line"/>
      <point x="147" y="316" type="line"/>
    </contour>
  </outline>
</glyph>
<glyph name="l" format="1">
  <advance width="214"/>
  <unicode hex="006C"/>
  <outline>
    <contour>
      <point x="147" y="750" type="line"/>
      <point x="68" y="750" type="line"/>
      <point x="68" y="0" type="line"/>
      <point x="147" y="0" type="line"/>
    </contour>
  </outline>
</glyph>
<glyph name="m" format="1">
  <advance width="919"/>
  <unicode hex="006D"/>
  <outline>
    <contour>
      <point x="145" y="525" type="line"/>
      <point x="66" y="525" type="line"/>
      <point x="66" y="0" type="line"/>
      <point x="145" y="0" type="line"/>
      <point x="145" y="316" type="line" smooth="yes"/>
      <point x="145" y="395"/>
      <point x="223" y="467"/>
      <point x="303" y="467" type="qcurve" smooth="yes"/>
      <point x="343" y="467"/>
      <point x="391" y="452"/>
      <point x="412" y="424"/>
      <point x="418" y="388"/>
      <point x="420" y="355" type="qcurve" smooth="yes"/>
      <point x="420" y="352" type="line"/>
      <point x="420" y="0" type="line"/>
      <point x="499" y="0" type="line"/>
      <point x="499" y="322" type="line" smooth="yes"/>
      <point x="499" y="405"/>
      <point x="572" y="467"/>
      <point x="659" y="467" type="qcurve" smooth="yes"/>
      <point x="731" y="467"/>
      <point x="774" y="411"/>
      <point x="774" y="338" type="qcurve" smooth="yes"/>
      <point x="774" y="0" type="line"/>
      <point x="853" y="0" type="line"/>
      <point x="853" y="346" type="line" smooth="yes"/>
      <point x="853" y="445"/>
      <point x="771" y="531"/>
      <point x="671" y="531" type="qcurve" smooth="yes"/>
      <point x="608" y="531"/>
      <point x="508" y="492"/>
      <point x="484" y="444" type="qcurve"/>
      <point x="478" y="469"/>
      <point x="444" y="503"/>
      <point x="399" y="523"/>
      <point x="348" y="531"/>
      <point x="322" y="531" type="qcurve" smooth="yes"/>
      <point x="263" y="531"/>
      <point x="166" y="491"/>
      <point x="147" y="444" type="qcurve"/>
      <point x="145" y="444" type="line"/>
    </contour>
  </outline>
</glyph>
<glyph name="n" format="1">
  <advance width="580"/>
  <unicode hex="006E"/>
  <outline>
    <contour>
      <point x="148" y="525" type="line"/>
      <point x="69" y="525" type="line"/>
      <point x="69" y="0" type="line"/>
      <point x="148" y="0" type="line"/>
      <point x="148" y="306" type="line" smooth="yes"/>
      <point x="148" y="353"/>
      <point x="161" y="414"/>
      <point x="195" y="451"/>
      <point x="256" y="467"/>
      <point x="305" y="467" type="qcurve" smooth="yes"/>
      <point x="376" y="467"/>
      <point x="431" y="424"/>
      <point x="431" y="355" type="qcurve" smooth="yes"/>
      <point x="431" y="0" type="line"/>
      <point x="510" y="0" type="line"/>
      <point x="510" y="349" type="line" smooth="yes"/>
      <point x="510" y="455"/>
      <point x="417" y="531"/>
      <point x="312" y="531" type="qcurve" smooth="yes"/>
      <point x="285" y="531"/>
      <point x="238" y="526"/>
      <point x="194" y="512"/>
      <point x="159" y="484"/>
      <point x="150" y="461" type="qcurve"/>
      <point x="148" y="461" type="line"/>
    </contour>
  </outline>
</glyph>
<glyph name="p" format="1">
  <advance width="573"/>
  <unicode hex="0070"/>
  <outline>
    <contour>
      <point x="294" y="467" type="qcurve" smooth="yes"/>
      <point x="345" y="467"/>
      <point x="402" y="447"/>
      <point x="430" y="401"/>
      <point x="439" y="328"/>
      <point x="439" y="262" type="qcurve" smooth="yes"/>
      <point x="439" y="195"/>
      <point x="427" y="118"/>
      <point x="397" y="75"/>
      <point x="342" y="58"/>
      <point x="294" y="58" type="qcurve" smooth="yes"/>
      <point x="243" y="58"/>
      <point x="182" y="86"/>
      <point x="153" y="138"/>
      <point x="145" y="206"/>
      <point x="145" y="262" type="qcurve" smooth="yes"/>
      <point x="145" y="327"/>
      <point x="151" y="394"/>
      <point x="178" y="443"/>
      <point x="239" y="467"/>
    </contour>
    <contour>
      <point x="145" y="525" type="line"/>
      <point x="66" y="525" type="line"/>
      <point x="66" y="-227" type="line"/>
      <point x="145" y="-227" type="line"/>
      <point x="145" y="62" type="line"/>
      <point x="147" y="62" type="line"/>
      <point x="158" y="40"/>
      <point x="195" y="13"/>
      <point x="242" y="-1"/>
      <point x="289" y="-6"/>
      <point x="316" y="-6" type="qcurve" smooth="yes"/>
      <point x="376" y="-6"/>
      <point x="453" y="20"/>
      <point x="500" y="80"/>
      <point x="521" y="183"/>
      <point x="521" y="262" type="qcurve" smooth="yes"/>
      <point x="521" y="331"/>
      <point x="509" y="423"/>
      <point x="469" y="493"/>
      <point x="385" y="531"/>
      <point x="316" y="531" type="qcurve" smooth="yes"/>
      <point x="257" y="531"/>
      <point x="169" y="500"/>
      <point x="147" y="459" type="qcurve"/>
      <point x="145" y="461" type="line"/>
    </contour>
  </outline>
</glyph>
<glyph name="q" format="1">
  <advance width="575"/>
  <unicode hex="0071"/>
  <outline>
    <contour>
      <point x="284" y="58" type="qcurve" smooth="yes"/>
      <point x="230" y="58"/>
      <point x="169" y="80"/>
      <point x="141" y="127"/>
      <point x="134" y="196"/>
      <point x="134" y="262" type="qcurve" smooth="yes"/>
      <point x="134" y="331"/>
      <point x="147" y="411"/>
      <point x="178" y="453"/>
      <point x="229" y="467"/>
      <point x="272" y="467" type="qcurve" smooth="yes"/>
      <point x="328" y="467"/>
      <point x="391" y="445"/>
      <point x="420" y="397"/>
      <point x="427" y="327"/>
      <point x="427" y="262" type="qcurve" smooth="yes"/>
      <point x="427" y="204"/>
      <point x="419" y="133"/>
      <point x="391" y="83"/>
      <point x="333" y="58"/>
    </contour>
    <contour>
      <point x="508" y="525" type="line"/>
      <point x="429" y="525" type="line"/>
      <point x="429" y="462" type="line"/>
      <point x="427" y="460" type="line"/>
      <point x="407" y="499"/>
      <point x="326" y="531"/>
      <point x="273" y="531" type="qcurve" smooth="yes"/>
      <point x="200" y="531"/>
      <point x="111" y="496"/>
      <point x="67" y="429"/>
      <point x="52" y="334"/>
      <point x="52" y="262" type="qcurve" smooth="yes"/>
      <point x="52" y="177"/>
      <point x="76" y="72"/>
      <point x="128" y="15"/>
      <point x="210" y="-6"/>
      <point x="273" y="-6" type="qcurve" smooth="yes"/>
      <point x="296" y="-6"/>
      <point x="340" y="-2"/>
      <point x="383" y="12"/>
      <point x="418" y="39"/>
      <point x="427" y="60" type="qcurve"/>
      <point x="429" y="60" type="line"/>
      <point x="429" y="-227" type="line"/>
      <point x="508" y="-227" type="line"/>
    </contour>
  </outline>
</glyph>
<glyph name="r" format="1">
  <advance width="442"/>
  <unicode hex="0072"/>
  <outline>
    <contour>
      <point x="58" y="525" type="line"/>
      <point x="58" y="0" type="line"/>
      <point x="137" y="0" type="line"/>
      <point x="137" y="327" type="line" smooth="yes"/>
      <point x="137" y="401"/>
      <point x="195" y="467"/>
      <point x="265" y="467" type="qcurve" smooth="yes"/>
      <point x="314" y="467"/>
      <point x="353" y="429"/>
      <point x="353" y="380" type="qcurve" smooth="yes"/>
      <point x="353" y="345" type="line"/>
      <point x="428" y="345" type="line"/>
      <point x="428" y="383" type="line" smooth="yes"/>
      <point x="428" y="457"/>
      <point x="357" y="531"/>
      <point x="282" y="531" type="qcurve" smooth="yes"/>
      <point x="231" y="531"/>
      <point x="152" y="498"/>
      <point x="133" y="458" type="qcurve"/>
      <point x="131" y="460" type="line"/>
      <point x="135" y="525" type="line"/>
    </contour>
  </outline>
</glyph>
<glyph name="s" format="1">
  <advance width="537"/>
  <unicode hex="0073"/>
  <outline>
    <contour>
      <point x="484" y="408" type="line" smooth="yes"/>
      <point x="484" y="450"/>
      <point x="448" y="501"/>
      <point x="389" y="525"/>
      <point x="323" y="531"/>
      <point x="279" y="531" type="qcurve" smooth="yes"/>
      <point x="214" y="531"/>
      <point x="138" y="524"/>
      <point x="81" y="495"/>
      <point x="50" y="431"/>
      <point x="50" y="376" type="qcurve" smooth="yes"/>
      <point x="50" y="328"/>
      <point x="80" y="271"/>
      <point x="132" y="244"/>
      <point x="192" y="236"/>
      <point x="242" y="233" type="qcurve" smooth="yes"/>
      <point x="267" y="232"/>
      <point x="279" y="231" type="qcurve" smooth="yes"/>
      <point x="294" y="230"/>
      <point x="322" y="229" type="qcurve" smooth="yes"/>
      <point x="378" y="228"/>
      <point x="416" y="202"/>
      <point x="416" y="145" type="qcurve" smooth="yes"/>
      <point x="416" y="119"/>
      <point x="399" y="85"/>
      <point x="370" y="69"/>
      <point x="337" y="64"/>
      <point x="315" y="64" type="qcurve" smooth="yes"/>
      <point x="314" y="64"/>
      <point x="296" y="64" type="qcurve" smooth="yes"/>
      <point x="284" y="64"/>
      <point x="279" y="64" type="qcurve" smooth="yes"/>
      <point x="188" y="64"/>
      <point x="128" y="88"/>
      <point x="128" y="125" type="qcurve" smooth="yes"/>
      <point x="128" y="166" type="line"/>
      <point x="46" y="166" type="line"/>
      <point x="46" y="117" type="line" smooth="yes"/>
      <point x="46" y="75"/>
      <point x="85" y="25"/>
      <point x="150" y="1"/>
      <point x="226" y="-6"/>
      <point x="279" y="-6" type="qcurve" smooth="yes"/>
      <point x="334" y="-6"/>
      <point x="405" y="2"/>
      <point x="464" y="31"/>
      <point x="498" y="95"/>
      <point x="498" y="148" type="qcurve" smooth="yes"/>
      <point x="498" y="202"/>
      <point x="467" y="265"/>
      <point x="412" y="294"/>
      <point x="348" y="302"/>
      <point x="291" y="304" type="qcurve" smooth="yes"/>
      <point x="260" y="305"/>
      <point x="240" y="306" type="qcurve" smooth="yes"/>
      <point x="226" y="307"/>
      <point x="222" y="307" type="qcurve" smooth="yes"/>
      <point x="192" y="308"/>
      <point x="161" y="313"/>
      <point x="141" y="329"/>
      <point x="132" y="364"/>
      <point x="132" y="397" type="qcurve" smooth="yes"/>
      <point x="132" y="441"/>
      <point x="192" y="461"/>
      <point x="279" y="461" type="qcurve" smooth="yes"/>
      <point x="351" y="461"/>
      <point x="402" y="445"/>
      <point x="402" y="408" type="qcurve" smooth="yes"/>
      <point x="402" y="388" type="line"/>
      <point x="484" y="388" type="line"/>
    </contour>
  </outline>
</glyph>
<glyph name="t" format="1">
  <advance width="366"/>
  <unicode hex="0074"/>
  <outline>
    <contour>
      <point x="346" y="525" type="line"/>
      <point x="143" y="525" type="line"/>
      <point x="143" y="652" type="line"/>
      <point x="64" y="652" type="line"/>
      <point x="64" y="525" type="line"/>
      <point x="-6" y="525" type="line"/>
      <point x="-6" y="461" type="line"/>
      <point x="64" y="461" type="line"/>
      <point x="64" y="152" type="line" smooth="yes"/>
      <point x="64" y="104"/>
      <point x="77" y="45"/>
      <point x="110" y="9"/>
      <point x="168" y="-6"/>
      <point x="215" y="-6" type="qcurve" smooth="yes"/>
      <point x="295" y="-6"/>
      <point x="366" y="68"/>
      <point x="366" y="147" type="qcurve" smooth="yes"/>
      <point x="366" y="186" type="line"/>
      <point x="291" y="186" type="line"/>
      <point x="291" y="147" type="line" smooth="yes"/>
      <point x="291" y="100"/>
      <point x="267" y="58"/>
      <point x="217" y="58" type="qcurve" smooth="yes"/>
      <point x="173" y="58"/>
      <point x="144" y="86"/>
      <point x="143" y="128" type="qcurve" smooth="yes"/>
      <point x="143" y="461" type="line"/>
      <point x="346" y="461" type="line"/>
    </contour>
  </outline>
</glyph>
<glyph name="u" format="1">
  <advance width="570"/>
  <unicode hex="0075"/>
  <outline>
    <contour>
      <point x="420" y="0" type="line"/>
      <point x="500" y="0" type="line"/>
      <point x="500" y="525" type="line"/>
      <point x="421" y="525" type="line"/>
      <point x="421" y="201" type="line" smooth="yes"/>
      <point x="421" y="113"/>
      <point x="344" y="58"/>
      <point x="253" y="58" type="qcurve" smooth="yes"/>
      <point x="182" y="58"/>
      <point x="145" y="116"/>
      <point x="145" y="188" type="qcurve" smooth="yes"/>
      <point x="145" y="525" type="line"/>
      <point x="66" y="525" type="line"/>
      <point x="66" y="188" type="line" smooth="yes"/>
      <point x="66" y="83"/>
      <point x="151" y="-6"/>
      <point x="254" y="-6" type="qcurve" smooth="yes"/>
      <point x="315" y="-6"/>
      <point x="399" y="26"/>
      <point x="418" y="70" type="qcurve"/>
      <point x="420" y="70" type="line"/>
    </contour>
  </outline>
</glyph>
<glyph name="v" format="1">
  <advance width="453"/>
  <unicode hex="0076"/>
  <outline>
    <contour>
      <point x="457" y="525" type="line"/>
      <point x="371" y="525" type="line"/>
      <point x="227" y="60" type="line"/>
      <point x="225" y="60" type="line"/>
      <point x="76" y="525" type="line"/>
      <point x="-4" y="525" type="line"/>
      <point x="170" y="0" type="line"/>
      <point x="281" y="0" type="line"/>
    </contour>
  </outline>
</glyph>
<glyph name="z" format="1">
  <advance width="454"/>
  <unicode hex="007A"/>
  <outline>
    <contour>
      <point x="430" y="525" type="line"/>
      <point x="51" y="525" type="line"/>
      <point x="51" y="461" type="line"/>
      <point x="338" y="461" type="line"/>
      <point x="25" y="73" type="line"/>
      <point x="25" y="0" type="line"/>
      <point x="430" y="0" type="line"/>
      <point x="430" y="64" type="line"/>
      <point x="117" y="64" type="line"/>
      <point x="430" y="452" type="line"/>
    </contour>
  </outline>
</glyph>
<glyph name="asciitilde" format="1">
  <advance width="584"/>
  <unicode hex="007E"/>
  <outline>
    <contour>
      <point x="120" y="215" type="line"/>
      <point x="120" y="255"/>
      <point x="149" y="308"/>
      <point x="168" y="308" type="qcurve" smooth="yes"/>
      <point x="189" y="308"/>
      <point x="208" y="292" type="qcurve" smooth="yes"/>
      <point x="328" y="216" type="line" smooth="yes"/>
      <point x="374" y="188"/>
      <point x="418" y="188" type="qcurve" smooth="yes"/>
      <point x="444" y="188"/>
      <point x="488" y="214"/>
      <point x="518" y="259"/>
      <point x="535" y="311"/>
      <point x="535" y="336" type="qcurve" smooth="yes"/>
      <point x="535" y="337"/>
      <point x="534" y="343" type="qcurve" smooth="yes"/>
      <point x="534" y="347"/>
      <point x="534" y="349" type="qcurve" smooth="yes"/>
      <point x="464" y="349" type="line" smooth="yes"/>
      <point x="464" y="346"/>
      <point x="464" y="341" type="qcurve" smooth="yes"/>
      <point x="465" y="336"/>
      <point x="465" y="333" type="qcurve" smooth="yes"/>
      <point x="465" y="304"/>
      <point x="443" y="264"/>
      <point x="420" y="264" type="qcurve" smooth="yes"/>
      <point x="396" y="264"/>
      <point x="373" y="277" type="qcurve" smooth="yes"/>
      <point x="227" y="365" type="line" smooth="yes"/>
      <point x="204" y="379"/>
      <point x="160" y="379" type="qcurve" smooth="yes"/>
      <point x="130" y="376"/>
      <point x="89" y="346"/>
      <point x="63" y="300"/>
      <point x="51" y="245"/>
      <point x="50" y="215" type="qcurve"/>
    </contour>
  </outline>
</glyph>
<glyph name="currency" format="1">
  <advance width="690"/>
  <unicode hex="00A4"/>
  <outline>
    <contour>
      <point x="134" y="497" type="line"/>
      <point x="192" y="437" type="line"/>
      <point x="174" y="422"/>
      <point x="158" y="372"/>
      <point x="158" y="340" type="qcurve" smooth="yes"/>
      <point x="158" y="273"/>
      <point x="187" y="236" type="qcurve"/>
      <point x="138" y="185" type="line"/>
      <point x="193" y="126" type="line"/>
      <point x="247" y="177" type="line"/>
      <point x="277" y="163"/>
      <point x="316" y="152"/>
      <point x="340" y="152" type="qcurve" smooth="yes"/>
      <point x="391" y="154"/>
      <point x="440" y="185" type="qcurve"/>
      <point x="493" y="130" type="line"/>
      <point x="551" y="185" type="line"/>
      <point x="494" y="242" type="line"/>
      <point x="507" y="264"/>
      <point x="524" y="313"/>
      <point x="524" y="348" type="qcurve"/>
      <point x="520" y="381"/>
      <point x="507" y="419"/>
      <point x="498" y="433" type="qcurve"/>
      <point x="556" y="488" type="line"/>
      <point x="497" y="549" type="line"/>
      <point x="441" y="495" type="line"/>
      <point x="414" y="508"/>
      <point x="367" y="519"/>
      <point x="339" y="519" type="qcurve" smooth="yes"/>
      <point x="295" y="517"/>
      <point x="246" y="495" type="qcurve"/>
      <point x="188" y="554" type="line"/>
    </contour>
    <contour>
      <point x="339" y="217" type="qcurve" smooth="yes"/>
      <point x="320" y="217"/>
      <point x="279" y="232"/>
      <point x="245" y="261"/>
      <point x="223" y="307"/>
      <point x="223" y="337" type="qcurve" smooth="yes"/>
      <point x="223" y="367"/>
      <point x="245" y="412"/>
      <point x="263" y="427" type="qcurve" smooth="yes"/>
      <point x="296" y="454"/>
      <point x="339" y="454" type="qcurve" smooth="yes"/>
      <point x="383" y="454"/>
      <point x="459" y="394"/>
      <point x="459" y="340" type="qcurve" smooth="yes"/>
      <point x="459" y="310"/>
      <point x="437" y="262"/>
      <point x="401" y="232"/>
      <point x="359" y="217"/>
    </contour>
  </outline>
</glyph>
<glyph name="brokenbar" format="1">
  <advance width="260"/>
  <unicode hex="00A6"/>
  <outline>
    <contour>
      <point x="168" y="-175" type="line"/>
      <point x="168" y="175" type="line"/>
      <point x="93" y="175" type="line"/>
      <point x="93" y="-175" type="line"/>
    </contour>
    <contour>
      <point x="168" y="675" type="line"/>
      <point x="93" y="675" type="line"/>
      <point x="93" y="325" type="line"/>
      <point x="168" y="325" type="line"/>
    </contour>
  </outline>
</glyph>
<glyph name="ordfeminine" format="1">
  <advance width="440"/>
  <unicode hex="00AA"/>
  <outline>
    <contour>
      <point x="311" y="435" type="line"/>
      <point x="364" y="435" type="line"/>
      <point x="364" y="650" type="line" smooth="yes"/>
      <point x="364" y="686"/>
      <point x="341" y="729"/>
      <point x="302" y="750"/>
      <point x="252" y="756"/>
      <point x="216" y="756" type="qcurve" smooth="yes"/>
      <point x="183" y="756"/>
      <point x="138" y="751"/>
      <point x="102" y="733"/>
      <point x="80" y="693"/>
      <point x="80" y="659" type="qcurve"/>
      <point x="140" y="659" type="line"/>
      <point x="140" y="691"/>
      <point x="175" y="708"/>
      <point x="223" y="708" type="qcurve" smooth="yes"/>
      <point x="279" y="708"/>
      <point x="304" y="669"/>
      <point x="304" y="606" type="qcurve"/>
      <point x="289" y="623"/>
      <point x="235" y="631"/>
      <point x="198" y="631" type="qcurve" smooth="yes"/>
      <point x="132" y="631"/>
      <point x="68" y="588"/>
      <point x="68" y="527" type="qcurve" smooth="yes"/>
      <point x="68" y="469"/>
      <point x="136" y="429"/>
      <point x="199" y="429" type="qcurve" smooth="yes"/>
      <point x="239" y="429"/>
      <point x="292" y="440"/>
      <point x="309" y="461" type="qcurve"/>
      <point x="311" y="459" type="line"/>
    </contour>
    <contour>
      <point x="208" y="477" type="qcurve" smooth="yes"/>
      <point x="164" y="477"/>
      <point x="131" y="496"/>
      <point x="131" y="533" type="qcurve" smooth="yes"/>
      <point x="131" y="566"/>
      <point x="167" y="583"/>
      <point x="218" y="583" type="qcurve" smooth="yes"/>
      <point x="264" y="583"/>
      <point x="304" y="564"/>
      <point x="304" y="529" type="qcurve" smooth="yes"/>
      <point x="304" y="495"/>
      <point x="256" y="477"/>
    </contour>
  </outline>
</glyph>
<glyph name="macron" format="1">
  <advance width="434"/>
  <unicode hex="00AF"/>
  <outline>
    <contour>
      <point x="79" y="648" type="line"/>
      <point x="79" y="584" type="line"/>
      <point x="355" y="584" type="line"/>
      <point x="355" y="648" type="line"/>
    </contour>
  </outline>
</glyph>
<glyph name="mu" format="1">
  <advance width="570"/>
  <unicode hex="00B5"/>
  <outline>
    <contour>
      <point x="422" y="0" type="line"/>
      <point x="502" y="0" type="line"/>
      <point x="502" y="525" type="line"/>
      <point x="423" y="525" type="line"/>
      <point x="423" y="201" type="line" smooth="yes"/>
      <point x="423" y="114"/>
      <point x="346" y="58"/>
      <point x="255" y="58" type="qcurve" smooth="yes"/>
      <point x="184" y="58"/>
      <point x="147" y="116"/>
      <point x="147" y="188" type="qcurve" smooth="yes"/>
      <point x="147" y="525" type="line"/>
      <point x="68" y="525" type="line"/>
      <point x="68" y="-227" type="line"/>
      <point x="147" y="-227" type="line"/>
      <point x="147" y="14" type="line"/>
      <point x="186" y="-6"/>
      <point x="256" y="-6" type="qcurve" smooth="yes"/>
      <point x="317" y="-6"/>
      <point x="401" y="26"/>
      <point x="420" y="70" type="qcurve"/>
      <point x="422" y="70" type="line"/>
    </contour>
  </outline>
</glyph>
<glyph name="paragraph" format="1">
  <advance width="690"/>
  <unicode hex="00B6"/>
  <outline>
    <contour>
      <point x="656" y="-209" type="line"/>
      <point x="656" y="750" type="line"/>
      <point x="242" y="750" type="line" smooth="yes"/>
      <point x="179" y="750"/>
      <point x="97" y="720"/>
      <point x="52" y="661"/>
      <point x="34" y="579"/>
      <point x="34" y="520" type="qcurve" smooth="yes"/>
      <point x="34" y="448"/>
      <point x="63" y="358"/>
      <point x="118" y="311"/>
      <point x="191" y="294"/>
      <point x="242" y="294" type="qcurve" smooth="yes"/>
      <point x="417" y="294" type="line"/>
      <point x="417" y="-209" type="line"/>
      <point x="492" y="-209" type="line"/>
      <point x="492" y="680" type="line"/>
      <point x="581" y="680" type="line"/>
      <point x="581" y="-209" type="line"/>
    </contour>
    <contour>
      <point x="417" y="364" type="line"/>
      <point x="242" y="364" type="line" smooth="yes"/>
      <point x="211" y="364"/>
      <point x="168" y="375"/>
      <point x="136" y="407"/>
      <point x="119" y="469"/>
      <point x="119" y="520" type="qcurve" smooth="yes"/>
      <point x="119" y="571"/>
      <point x="126" y="627"/>
      <point x="149" y="664"/>
      <point x="199" y="680"/>
      <point x="242" y="680" type="qcurve" smooth="yes"/>
      <point x="417" y="680" type="line"/>
    </contour>
  </outline>
</glyph>
<glyph name="onesuperior" format="1">
  <advance width="414"/>
  <unicode hex="00B9"/>
  <outline>
    <contour>
      <point x="269" y="756" type="line"/>
      <point x="179" y="756" type="line"/>
      <point x="45" y="621" type="line"/>
      <point x="79" y="580" type="line"/>
      <point x="204" y="708" type="line"/>
      <point x="204" y="302" type="line"/>
      <point x="269" y="302" type="line"/>
    </contour>
  </outline>
</glyph>
<glyph name="ordmasculine" format="1">
  <advance width="440"/>
  <unicode hex="00BA"/>
  <outline>
    <contour>
      <point x="225" y="756" type="qcurve" smooth="yes"/>
      <point x="174" y="756"/>
      <point x="113" y="739"/>
      <point x="82" y="702"/>
      <point x="72" y="644"/>
      <point x="72" y="595" type="qcurve" smooth="yes"/>
      <point x="72" y="540"/>
      <point x="83" y="479"/>
      <point x="114" y="443"/>
      <point x="173" y="429"/>
      <point x="225" y="429" type="qcurve" smooth="yes"/>
      <point x="274" y="429"/>
      <point x="331" y="447"/>
      <point x="359" y="485"/>
      <point x="368" y="544"/>
      <point x="368" y="595" type="qcurve" smooth="yes"/>
      <point x="368" y="646"/>
      <point x="356" y="706"/>
      <point x="325" y="741"/>
      <point x="271" y="756"/>
    </contour>
    <contour>
      <point x="225" y="708" type="qcurve" smooth="yes"/>
      <point x="256" y="708"/>
      <point x="289" y="699"/>
      <point x="304" y="675"/>
      <point x="308" y="635"/>
      <point x="308" y="595" type="qcurve" smooth="yes"/>
      <point x="308" y="554"/>
      <point x="304" y="511"/>
      <point x="288" y="487"/>
      <point x="256" y="477"/>
      <point x="225" y="477" type="qcurve" smooth="yes"/>
      <point x="187" y="477"/>
      <point x="154" y="482"/>
      <point x="137" y="503"/>
      <point x="132" y="547"/>
      <point x="132" y="595" type="qcurve" smooth="yes"/>
      <point x="132" y="637"/>
      <point x="137" y="679"/>
      <point x="155" y="701"/>
      <point x="190" y="708"/>
    </contour>
  </outline>
</glyph>
<glyph name="guillemotright" format="1">
  <advance width="503"/>
  <unicode hex="00BB"/>
  <outline>
    <contour>
      <point x="254" y="540" type="line"/>
      <point x="372" y="289" type="line"/>
      <point x="241" y="36" type="line"/>
      <point x="296" y="0" type="line"/>
      <point x="447" y="289" type="line"/>
      <point x="312" y="575" type="line"/>
    </contour>
    <contour>
      <point x="69" y="540" type="line"/>
      <point x="187" y="289" type="line"/>
      <point x="56" y="36" type="line"/>
      <point x="111" y="0" type="line"/>
      <point x="262" y="289" type="line"/>
      <point x="127" y="575" type="line"/>
    </contour>
  </outline>
</glyph>
<glyph name="threequarters" format="1">
  <advance width="1035"/>
  <unicode hex="00BE"/>
  <outline>
    <contour>
      <point x="925" y="450" type="line"/>
      <point x="833" y="450" type="line"/>
      <point x="591" y="163" type="line"/>
      <point x="591" y="91" type="line"/>
      <point x="860" y="91" type="line"/>
      <point x="860" y="0" type="line"/>
      <point x="925" y="0" type="line"/>
      <point x="925" y="91" type="line"/>
      <point x="991" y="91" type="line"/>
      <point x="991" y="151" type="line"/>
      <point x="925" y="151" type="line"/>
    </contour>
    <contour>
      <point x="860" y="151" type="line"/>
      <point x="641" y="151" type="line"/>
      <point x="857" y="407" type="line"/>
      <point x="860" y="407" type="line"/>
    </contour>
    <contour>
      <point x="850" y="750" type="line"/>
      <point x="780" y="750" type="line"/>
      <point x="274" y="0" type="line"/>
      <point x="341" y="0" type="line"/>
    </contour>
    <contour>
      <point x="186" y="508" type="line"/>
      <point x="244" y="508" type="line" smooth="yes"/>
      <point x="301" y="508"/>
      <point x="342" y="485"/>
      <point x="342" y="435" type="qcurve" smooth="yes"/>
      <point x="342" y="405"/>
      <point x="334" y="374"/>
      <point x="309" y="358"/>
      <point x="263" y="353"/>
      <point x="218" y="353" type="qcurve" smooth="yes"/>
      <point x="178" y="354"/>
      <point x="139" y="358"/>
      <point x="118" y="371"/>
      <point x="110" y="397"/>
      <point x="110" y="423" type="qcurve" smooth="yes"/>
      <point x="110" y="448" type="line"/>
      <point x="45" y="448" type="line"/>
      <point x="45" y="418" type="line" smooth="yes"/>
      <point x="45" y="344"/>
      <point x="126" y="298"/>
      <point x="218" y="298" type="qcurve" smooth="yes"/>
      <point x="274" y="298"/>
      <point x="338" y="304"/>
      <point x="384" y="329"/>
      <point x="407" y="382"/>
      <point x="407" y="429" type="qcurve" smooth="yes"/>
      <point x="407" y="481"/>
      <point x="370" y="528"/>
      <point x="317" y="532" type="qcurve"/>
      <point x="317" y="534" type="line"/>
      <point x="367" y="537"/>
      <point x="397" y="588"/>
      <point x="397" y="639" type="qcurve" smooth="yes"/>
      <point x="397" y="681"/>
      <point x="373" y="729"/>
      <point x="330" y="750"/>
      <point x="277" y="755"/>
      <point x="227" y="756" type="qcurve" smooth="yes"/>
      <point x="223" y="756" type="line" smooth="yes"/>
      <point x="173" y="756"/>
      <point x="115" y="749"/>
      <point x="73" y="725"/>
      <point x="51" y="675"/>
      <point x="51" y="633" type="qcurve" smooth="yes"/>
      <point x="51" y="614" type="line"/>
      <point x="116" y="614" type="line"/>
      <point x="116" y="633" type="line" smooth="yes"/>
      <point x="117" y="656"/>
      <point x="125" y="683"/>
      <point x="146" y="696"/>
      <point x="182" y="701"/>
      <point x="216" y="701" type="qcurve" smooth="yes"/>
      <point x="259" y="701"/>
      <point x="302" y="696"/>
      <point x="325" y="683"/>
      <point x="332" y="656"/>
      <point x="332" y="630" type="qcurve" smooth="yes"/>
      <point x="332" y="584"/>
      <point x="301" y="564"/>
      <point x="253" y="563" type="qcurve" smooth="yes"/>
      <point x="244" y="563" type="line"/>
      <point x="186" y="563" type="line"/>
    </contour>
  </outline>
</glyph>
<glyph name="Agrave" format="1">
  <advance width="685"/>
  <unicode hex="00C0"/>
  <outline>
    <contour>
      <point x="289" y="968" type="line"/>
      <point x="249" y="914" type="line"/>
      <point x="411" y="814" type="line"/>
      <point x="437" y="855" type="line"/>
    </contour>
    <contour>
      <point x="532" y="159" type="line"/>
      <point x="591" y="0" type="line"/>
      <point x="679" y="0" type="line"/>
      <point x="399" y="750" type="line"/>
      <point x="279" y="750" type="line"/>
      <point x="6" y="0" type="line"/>
      <point x="95" y="0" type="line"/>
      <point x="153" y="159" type="line"/>
    </contour>
    <contour>
      <point x="508" y="229" type="line"/>
      <point x="176" y="229" type="line"/>
      <point x="341" y="680" type="line"/>
    </contour>
  </outline>
</glyph>
<glyph name="Aacute" format="1">
  <advance width="685"/>
  <unicode hex="00C1"/>
  <outline>
    <contour>
      <point x="398" y="968" type="line"/>
      <point x="249" y="855" type="line"/>
      <point x="276" y="814" type="line"/>
      <point x="437" y="914" type="line"/>
    </contour>
    <contour>
      <point x="532" y="159" type="line"/>
      <point x="591" y="0" type="line"/>
      <point x="679" y="0" type="line"/>
      <point x="399" y="750" type="line"/>
      <point x="279" y="750" type="line"/>
      <point x="6" y="0" type="line"/>
      <point x="95" y="0" type="line"/>
      <point x="153" y="159" type="line"/>
    </contour>
    <contour>
      <point x="508" y="229" type="line"/>
      <point x="176" y="229" type="line"/>
      <point x="341" y="680" type="line"/>
    </contour>
  </outline>
</glyph>
<glyph name="Acircumflex" format="1">
  <advance width="685"/>
  <unicode hex="00C2"/>
  <outline>
    <contour>
      <point x="344" y="961" type="line"/>
      <point x="168" y="853" type="line"/>
      <point x="189" y="811" type="line"/>
      <point x="344" y="887" type="line"/>
      <point x="493" y="811" type="line"/>
      <point x="517" y="853" type="line"/>
    </contour>
    <contour>
      <point x="532" y="159" type="line"/>
      <point x="591" y="0" type="line"/>
      <point x="679" y="0" type="line"/>
      <point x="399" y="750" type="line"/>
      <point x="279" y="750" type="line"/>
      <point x="6" y="0" type="line"/>
      <point x="95" y="0" type="line"/>
      <point x="153" y="159" type="line"/>
    </contour>
    <contour>
      <point x="508" y="229" type="line"/>
      <point x="176" y="229" type="line"/>
      <point x="341" y="680" type="line"/>
    </contour>
  </outline>
</glyph>
<glyph name="Atilde" format="1">
  <advance width="685"/>
  <unicode hex="00C3"/>
  <outline>
    <contour>
      <point x="469" y="914" type="line"/>
      <point x="458" y="895"/>
      <point x="429" y="870"/>
      <point x="411" y="870" type="qcurve" smooth="yes"/>
      <point x="399" y="870"/>
      <point x="367" y="881"/>
      <point x="342" y="892" type="qcurve" smooth="yes"/>
      <point x="338" y="894" type="line" smooth="yes"/>
      <point x="312" y="904"/>
      <point x="283" y="913"/>
      <point x="269" y="913" type="qcurve" smooth="yes"/>
      <point x="236" y="913"/>
      <point x="190" y="873"/>
      <point x="173" y="839" type="qcurve"/>
      <point x="218" y="813" type="line"/>
      <point x="220" y="817"/>
      <point x="222" y="819" type="qcurve" smooth="yes"/>
      <point x="232" y="838"/>
      <point x="250" y="854"/>
      <point x="268" y="854" type="qcurve" smooth="yes"/>
      <point x="286" y="854"/>
      <point x="329" y="836" type="qcurve" smooth="yes"/>
      <point x="336" y="833" type="line" smooth="yes"/>
      <point x="361" y="822"/>
      <point x="394" y="811"/>
      <point x="409" y="811" type="qcurve" smooth="yes"/>
      <point x="442" y="811"/>
      <point x="493" y="853"/>
      <point x="512" y="886" type="qcurve"/>
    </contour>
    <contour>
      <point x="532" y="159" type="line"/>
      <point x="591" y="0" type="line"/>
      <point x="679" y="0" type="line"/>
      <point x="399" y="750" type="line"/>
      <point x="279" y="750" type="line"/>
      <point x="6" y="0" type="line"/>
      <point x="95" y="0" type="line"/>
      <point x="153" y="159" type="line"/>
    </contour>
    <contour>
      <point x="508" y="229" type="line"/>
      <point x="176" y="229" type="line"/>
      <point x="341" y="680" type="line"/>
    </contour>
  </outline>
</glyph>
<glyph name="Adieresis" format="1">
  <advance width="685"/>
  <unicode hex="00C4"/>
  <outline>
    <contour>
      <point x="287" y="878" type="line"/>
      <point x="199" y="878" type="line"/>
      <point x="199" y="804" type="line"/>
      <point x="287" y="804" type="line"/>
    </contour>
    <contour>
      <point x="487" y="878" type="line"/>
      <point x="399" y="878" type="line"/>
      <point x="399" y="804" type="line"/>
      <point x="487" y="804" type="line"/>
    </contour>
    <contour>
      <point x="532" y="159" type="line"/>
      <point x="591" y="0" type="line"/>
      <point x="679" y="0" type="line"/>
      <point x="399" y="750" type="line"/>
      <point x="279" y="750" type="line"/>
      <point x="6" y="0" type="line"/>
      <point x="95" y="0" type="line"/>
      <point x="153" y="159" type="line"/>
    </contour>
    <contour>
      <point x="508" y="229" type="line"/>
      <point x="176" y="229" type="line"/>
      <point x="341" y="680" type="line"/>
    </contour>
  </outline>
</glyph>
<glyph name="Aring" format="1">
  <advance width="685"/>
  <unicode hex="00C5"/>
  <outline>
    <contour>
      <point x="256" y="874" type="qcurve" smooth="yes"/>
      <point x="256" y="838"/>
      <point x="307" y="787"/>
      <point x="342" y="787" type="qcurve" smooth="yes"/>
      <point x="378" y="787"/>
      <point x="429" y="838"/>
      <point x="429" y="874" type="qcurve" smooth="yes"/>
      <point x="429" y="909"/>
      <point x="378" y="961"/>
      <point x="342" y="961" type="qcurve" smooth="yes"/>
      <point x="307" y="961"/>
      <point x="256" y="909"/>
    </contour>
    <contour>
      <point x="294" y="874" type="qcurve" smooth="yes"/>
      <point x="294" y="894"/>
      <point x="322" y="923"/>
      <point x="342" y="923" type="qcurve" smooth="yes"/>
      <point x="362" y="923"/>
      <point x="391" y="894"/>
      <point x="391" y="874" type="qcurve" smooth="yes"/>
      <point x="391" y="854"/>
      <point x="362" y="825"/>
      <point x="342" y="825" type="qcurve" smooth="yes"/>
      <point x="322" y="825"/>
      <point x="294" y="854"/>
    </contour>
    <contour>
      <point x="532" y="159" type="line"/>
      <point x="591" y="0" type="line"/>
      <point x="679" y="0" type="line"/>
      <point x="399" y="750" type="line"/>
      <point x="279" y="750" type="line"/>
      <point x="6" y="0" type="line"/>
      <point x="95" y="0" type="line"/>
      <point x="153" y="159" type="line"/>
    </contour>
    <contour>
      <point x="508" y="229" type="line"/>
      <point x="176" y="229" type="line"/>
      <point x="341" y="680" type="line"/>
    </contour>
  </outline>
</glyph>
<glyph name="Edieresis" format="1">
  <advance width="560"/>
  <unicode hex="00CB"/>
  <outline>
    <contour>
      <point x="224" y="878" type="line"/>
      <point x="136" y="878" type="line"/>
      <point x="136" y="804" type="line"/>
      <point x="224" y="804" type="line"/>
    </contour>
    <contour>
      <point x="424" y="878" type="line"/>
      <point x="336" y="878" type="line"/>
      <point x="336" y="804" type="line"/>
      <point x="424" y="804" type="line"/>
    </contour>
    <contour>
      <point x="126" y="675" type="line"/>
      <point x="523" y="675" type="line"/>
      <point x="523" y="750" type="line"/>
      <point x="41" y="750" type="line"/>
      <point x="41" y="0" type="line"/>
      <point x="523" y="0" type="line"/>
      <point x="523" y="75" type="line"/>
      <point x="126" y="75" type="line"/>
      <point x="126" y="350" type="line"/>
      <point x="506" y="350" type="line"/>
      <point x="506" y="420" type="line"/>
      <point x="126" y="420" type="line"/>
    </contour>
  </outline>
</glyph>
<glyph name="Icircumflex" format="1">
  <advance width="228"/>
  <unicode hex="00CE"/>
  <outline>
    <contour>
      <point x="116" y="961" type="line"/>
      <point x="-60" y="853" type="line"/>
      <point x="-39" y="811" type="line"/>
      <point x="116" y="887" type="line"/>
      <point x="265" y="811" type="line"/>
      <point x="289" y="853" type="line"/>
    </contour>
    <contour>
      <point x="157" y="750" type="line"/>
      <point x="72" y="750" type="line"/>
      <point x="72" y="0" type="line"/>
      <point x="157" y="0" type="line"/>
    </contour>
  </outline>
</glyph>
<glyph name="Eth" format="1">
  <advance width="734"/>
  <unicode hex="00D0"/>
  <outline>
    <contour>
      <point x="70" y="421" type="line"/>
      <point x="-33" y="421" type="line"/>
      <point x="-33" y="351" type="line"/>
      <point x="70" y="351" type="line"/>
      <point x="70" y="0" type="line"/>
      <point x="455" y="0" type="line" smooth="yes"/>
      <point x="534" y="0"/>
      <point x="632" y="62"/>
      <point x="679" y="154"/>
      <point x="692" y="242"/>
      <point x="692" y="282" type="qcurve" smooth="yes"/>
      <point x="692" y="461" type="line" smooth="yes"/>
      <point x="692" y="558"/>
      <point x="641" y="679"/>
      <point x="562" y="735"/>
      <point x="481" y="750"/>
      <point x="435" y="750" type="qcurve" smooth="yes"/>
      <point x="70" y="750" type="line"/>
    </contour>
    <contour>
      <point x="155" y="675" type="line"/>
      <point x="449" y="675" type="line" smooth="yes"/>
      <point x="499" y="675"/>
      <point x="563" y="634"/>
      <point x="596" y="574"/>
      <point x="607" y="516"/>
      <point x="607" y="494" type="qcurve" smooth="yes"/>
      <point x="607" y="297" type="line" smooth="yes"/>
      <point x="606" y="241"/>
      <point x="593" y="163"/>
      <point x="558" y="106"/>
      <point x="490" y="75"/>
      <point x="435" y="75" type="qcurve" smooth="yes"/>
      <point x="155" y="75" type="line"/>
      <point x="155" y="351" type="line"/>
      <point x="362" y="351" type="line"/>
      <point x="362" y="421" type="line"/>
      <point x="155" y="421" type="line"/>
    </contour>
  </outline>
</glyph>
<glyph name="Otilde" format="1">
  <advance width="671"/>
  <unicode hex="00D5"/>
  <outline>
    <contour>
      <point x="462" y="914" type="line"/>
      <point x="451" y="895"/>
      <point x="422" y="870"/>
      <point x="404" y="870" type="qcurve" smooth="yes"/>
      <point x="392" y="870"/>
      <point x="360" y="881"/>
      <point x="335" y="892" type="qcurve" smooth="yes"/>
      <point x="331" y="894" type="line" smooth="yes"/>
      <point x="305" y="904"/>
      <point x="276" y="913"/>
      <point x="262" y="913" type="qcurve" smooth="yes"/>
      <point x="229" y="913"/>
      <point x="183" y="873"/>
      <point x="166" y="839" type="qcurve"/>
      <point x="211" y="813" type="line"/>
      <point x="213" y="817"/>
      <point x="215" y="819" type="qcurve" smooth="yes"/>
      <point x="225" y="838"/>
      <point x="243" y="854"/>
      <point x="261" y="854" type="qcurve" smooth="yes"/>
      <point x="279" y="854"/>
      <point x="322" y="836" type="qcurve" smooth="yes"/>
      <point x="329" y="833" type="line" smooth="yes"/>
      <point x="354" y="822"/>
      <point x="387" y="811"/>
      <point x="402" y="811" type="qcurve" smooth="yes"/>
      <point x="435" y="811"/>
      <point x="486" y="853"/>
      <point x="505" y="886" type="qcurve"/>
    </contour>
    <contour>
      <point x="285" y="756" type="line" smooth="yes"/>
      <point x="214" y="755"/>
      <point x="121" y="729"/>
      <point x="65" y="671"/>
      <point x="41" y="577"/>
      <point x="41" y="504" type="qcurve" smooth="yes"/>
      <point x="41" y="237" type="line" smooth="yes"/>
      <point x="41" y="104"/>
      <point x="151" y="-6"/>
      <point x="285" y="-6" type="qcurve" smooth="yes"/>
      <point x="386" y="-6" type="line" smooth="yes"/>
      <point x="521" y="-6"/>
      <point x="630" y="104"/>
      <point x="630" y="237" type="qcurve" smooth="yes"/>
      <point x="630" y="504" type="line" smooth="yes"/>
      <point x="630" y="577"/>
      <point x="606" y="671"/>
      <point x="550" y="729"/>
      <point x="457" y="755"/>
      <point x="386" y="756" type="qcurve" smooth="yes"/>
    </contour>
    <contour>
      <point x="386" y="681" type="line" smooth="yes"/>
      <point x="435" y="681"/>
      <point x="496" y="666"/>
      <point x="530" y="628"/>
      <point x="545" y="561"/>
      <point x="545" y="504" type="qcurve" smooth="yes"/>
      <point x="545" y="237" type="line" smooth="yes"/>
      <point x="545" y="182"/>
      <point x="527" y="115"/>
      <point x="488" y="81"/>
      <point x="432" y="70"/>
      <point x="386" y="69" type="qcurve" smooth="yes"/>
      <point x="285" y="69" type="line" smooth="yes"/>
      <point x="240" y="69"/>
      <point x="183" y="81"/>
      <point x="145" y="115"/>
      <point x="126" y="182"/>
      <point x="126" y="237" type="qcurve" smooth="yes"/>
      <point x="126" y="504" type="line" smooth="yes"/>
      <point x="126" y="561"/>
      <point x="141" y="628"/>
      <point x="176" y="666"/>
      <point x="236" y="681"/>
      <point x="285" y="681" type="qcurve" smooth="yes"/>
    </contour>
  </outline>
</glyph>
<glyph name="Yacute" format="1">
  <advance width="632"/>
  <unicode hex="00DD"/>
  <outline>
    <contour>
      <point x="389" y="968" type="line"/>
      <point x="240" y="855" type="line"/>
      <point x="267" y="814" type="line"/>
      <point x="428" y="914" type="line"/>
    </contour>
    <contour>
      <point x="638" y="750" type="line"/>
      <point x="537" y="750" type="line"/>
      <point x="315" y="399" type="line"/>
      <point x="93" y="750" type="line"/>
      <point x="-6" y="750" type="line"/>
      <point x="269" y="313" type="line"/>
      <point x="269" y="0" type="line"/>
      <point x="354" y="0" type="line"/>
      <point x="354" y="313" type="line"/>
    </contour>
  </outline>
</glyph>
<glyph name="germandbls" format="1">
  <advance width="590"/>
  <unicode hex="00DF"/>
  <outline>
    <contour>
      <point x="83" y="0" type="line"/>
      <point x="162" y="0" type="line"/>
      <point x="162" y="587" type="line" smooth="yes"/>
      <point x="162" y="653"/>
      <point x="218" y="692"/>
      <point x="290" y="692" type="qcurve" smooth="yes"/>
      <point x="362" y="692"/>
      <point x="417" y="659"/>
      <point x="417" y="597" type="qcurve" smooth="yes"/>
      <point x="417" y="576"/>
      <point x="410" y="548"/>
      <point x="386" y="526"/>
      <point x="334" y="514"/>
      <point x="291" y="514" type="qcurve" smooth="yes"/>
      <point x="242" y="514" type="line"/>
      <point x="242" y="450" type="line"/>
      <point x="308" y="450" type="line" smooth="yes"/>
      <point x="358" y="450"/>
      <point x="418" y="423"/>
      <point x="447" y="372"/>
      <point x="456" y="304"/>
      <point x="456" y="250" type="qcurve" smooth="yes"/>
      <point x="456" y="185"/>
      <point x="446" y="110"/>
      <point x="424" y="71"/>
      <point x="390" y="58"/>
      <point x="361" y="58" type="qcurve" smooth="yes"/>
      <point x="321" y="58"/>
      <point x="286" y="100"/>
      <point x="286" y="141" type="qcurve" smooth="yes"/>
      <point x="286" y="159" type="line"/>
      <point x="211" y="159" type="line"/>
      <point x="211" y="123" type="line" smooth="yes"/>
      <point x="211" y="59"/>
      <point x="295" y="-6"/>
      <point x="361" y="-6" type="qcurve" smooth="yes"/>
      <point x="421" y="-6"/>
      <point x="494" y="35"/>
      <point x="528" y="105"/>
      <point x="538" y="190"/>
      <point x="538" y="250" type="qcurve" smooth="yes"/>
      <point x="538" y="302"/>
      <point x="531" y="373"/>
      <point x="504" y="433"/>
      <point x="447" y="474"/>
      <point x="399" y="482" type="qcurve"/>
      <point x="399" y="484" type="line"/>
      <point x="448" y="497"/>
      <point x="499" y="559"/>
      <point x="499" y="609" type="qcurve" smooth="yes"/>
      <point x="499" y="655"/>
      <point x="464" y="715"/>
      <point x="406" y="745"/>
      <point x="334" y="756"/>
      <point x="290" y="756" type="qcurve" smooth="yes"/>
      <point x="233" y="756"/>
      <point x="158" y="743"/>
      <point x="108" y="708"/>
      <point x="83" y="641"/>
      <point x="83" y="587" type="qcurve" smooth="yes"/>
    </contour>
  </outline>
</glyph>
<glyph name="ae" format="1">
  <advance width="932"/>
  <unicode hex="00E6"/>
  <outline>
    <contour>
      <point x="506" y="309" type="line"/>
      <point x="509" y="362"/>
      <point x="518" y="417"/>
      <point x="546" y="452"/>
      <point x="606" y="467"/>
      <point x="660" y="467" type="qcurve" smooth="yes"/>
      <point x="711" y="467"/>
      <point x="761" y="458"/>
      <point x="789" y="429"/>
      <point x="800" y="368"/>
      <point x="802" y="309" type="qcurve"/>
    </contour>
    <contour>
      <point x="263" y="254" type="qcurve" smooth="yes"/>
      <point x="311" y="254"/>
      <point x="363" y="250"/>
      <point x="402" y="232"/>
      <point x="422" y="192"/>
      <point x="422" y="156" type="qcurve" smooth="yes"/>
      <point x="422" y="122"/>
      <point x="396" y="81"/>
      <point x="352" y="63"/>
      <point x="302" y="58"/>
      <point x="263" y="58" type="qcurve" smooth="yes"/>
      <point x="186" y="58"/>
      <point x="131" y="93"/>
      <point x="131" y="163" type="qcurve" smooth="yes"/>
      <point x="131" y="223"/>
      <point x="186" y="254"/>
    </contour>
    <contour>
      <point x="424" y="265" type="line"/>
      <point x="419" y="265" type="line"/>
      <point x="415" y="282"/>
      <point x="380" y="303"/>
      <point x="329" y="315"/>
      <point x="279" y="318"/>
      <point x="254" y="318" type="qcurve" smooth="yes"/>
      <point x="201" y="318"/>
      <point x="127" y="306"/>
      <point x="76" y="272"/>
      <point x="49" y="206"/>
      <point x="49" y="153" type="qcurve" smooth="yes"/>
      <point x="49" y="103"/>
      <point x="77" y="40"/>
      <point x="130" y="6"/>
      <point x="200" y="-6"/>
      <point x="249" y="-6" type="qcurve" smooth="yes"/>
      <point x="288" y="-6"/>
      <point x="352" y="0"/>
      <point x="409" y="18"/>
      <point x="450" y="53"/>
      <point x="459" y="81" type="qcurve"/>
      <point x="461" y="81" type="line"/>
      <point x="470" y="51"/>
      <point x="511" y="16"/>
      <point x="565" y="-1"/>
      <point x="622" y="-6"/>
      <point x="660" y="-6" type="qcurve" smooth="yes"/>
      <point x="713" y="-6"/>
      <point x="788" y="2"/>
      <point x="849" y="30"/>
      <point x="884" y="90"/>
      <point x="884" y="140" type="qcurve" smooth="yes"/>
      <point x="884" y="159" type="line"/>
      <point x="803" y="159" type="line"/>
      <point x="803" y="139" type="line" smooth="yes"/>
      <point x="803" y="86"/>
      <point x="746" y="58"/>
      <point x="660" y="58" type="qcurve" smooth="yes"/>
      <point x="603" y="58"/>
      <point x="545" y="71"/>
      <point x="515" y="108"/>
      <point x="506" y="177"/>
      <point x="506" y="245" type="qcurve"/>
      <point x="884" y="245" type="line"/>
      <point x="884" y="298" type="line" smooth="yes"/>
      <point x="884" y="372"/>
      <point x="862" y="462"/>
      <point x="811" y="512"/>
      <point x="727" y="531"/>
      <point x="660" y="531" type="qcurve" smooth="yes"/>
      <point x="629" y="531"/>
      <point x="576" y="527"/>
      <point x="523" y="514"/>
      <point x="479" y="487"/>
      <point x="468" y="465" type="qcurve"/>
      <point x="462" y="487"/>
      <point x="422" y="515"/>
      <point x="368" y="527"/>
      <point x="310" y="531"/>
      <point x="275" y="531" type="qcurve" smooth="yes"/>
      <point x="222" y="531"/>
      <point x="149" y="522"/>
      <point x="95" y="493"/>
      <point x="65" y="435"/>
      <point x="65" y="388" type="qcurve" smooth="yes"/>
      <point x="65" y="377" type="line"/>
      <point x="147" y="377" type="line"/>
      <point x="147" y="395" type="line" smooth="yes"/>
      <point x="147" y="421"/>
      <point x="171" y="451"/>
      <point x="210" y="464"/>
      <point x="252" y="467"/>
      <point x="284" y="467" type="qcurve" smooth="yes"/>
      <point x="360" y="467"/>
      <point x="424" y="429"/>
      <point x="424" y="362" type="qcurve" smooth="yes"/>
    </contour>
  </outline>
</glyph>
<glyph name="edieresis" format="1">
  <advance width="565"/>
  <unicode hex="00EB"/>
  <outline>
    <contour>
      <point x="227" y="653" type="line"/>
      <point x="139" y="653" type="line"/>
      <point x="139" y="579" type="line"/>
      <point x="227" y="579" type="line"/>
    </contour>
    <contour>
      <point x="427" y="653" type="line"/>
      <point x="339" y="653" type="line"/>
      <point x="339" y="579" type="line"/>
      <point x="427" y="579" type="line"/>
    </contour>
    <contour>
      <point x="431" y="159" type="line"/>
      <point x="431" y="139" type="line" smooth="yes"/>
      <point x="431" y="86"/>
      <point x="374" y="58"/>
      <point x="288" y="58" type="qcurve" smooth="yes"/>
      <point x="231" y="58"/>
      <point x="173" y="71"/>
      <point x="143" y="108"/>
      <point x="134" y="177"/>
      <point x="134" y="245" type="qcurve"/>
      <point x="512" y="245" type="line"/>
      <point x="512" y="298" type="line" smooth="yes"/>
      <point x="512" y="372"/>
      <point x="490" y="462"/>
      <point x="439" y="512"/>
      <point x="355" y="531"/>
      <point x="288" y="531" type="qcurve" smooth="yes"/>
      <point x="215" y="531"/>
      <point x="125" y="507"/>
      <point x="73" y="449"/>
      <point x="52" y="346"/>
      <point x="52" y="262" type="qcurve" smooth="yes"/>
      <point x="52" y="181"/>
      <point x="69" y="83"/>
      <point x="118" y="22"/>
      <point x="211" y="-6"/>
      <point x="288" y="-6" type="qcurve" smooth="yes"/>
      <point x="341" y="-6"/>
      <point x="416" y="2"/>
      <point x="477" y="30"/>
      <point x="512" y="90"/>
      <point x="512" y="140" type="qcurve" smooth="yes"/>
      <point x="512" y="159" type="line"/>
    </contour>
    <contour>
      <point x="134" y="309" type="line"/>
      <point x="137" y="362"/>
      <point x="146" y="417"/>
      <point x="174" y="452"/>
      <point x="234" y="467"/>
      <point x="288" y="467" type="qcurve" smooth="yes"/>
      <point x="339" y="467"/>
      <point x="389" y="458"/>
      <point x="417" y="429"/>
      <point x="428" y="368"/>
      <point x="430" y="309" type="qcurve"/>
    </contour>
  </outline>
</glyph>
<glyph name="igrave" format="1">
  <advance width="215"/>
  <unicode hex="00EC"/>
  <outline>
    <contour>
      <point x="54" y="743" type="line"/>
      <point x="14" y="689" type="line"/>
      <point x="176" y="589" type="line"/>
      <point x="202" y="630" type="line"/>
    </contour>
    <contour>
      <point x="147" y="525" type="line"/>
      <point x="68" y="525" type="line"/>
      <point x="68" y="0" type="line"/>
      <point x="147" y="0" type="line"/>
    </contour>
  </outline>
</glyph>
<glyph name="icircumflex" format="1">
  <advance width="215"/>
  <unicode hex="00EE"/>
  <outline>
    <contour>
      <point x="109" y="736" type="line"/>
      <point x="-67" y="628" type="line"/>
      <point x="-46" y="586" type="line"/>
      <point x="109" y="662" type="line"/>
      <point x="258" y="586" type="line"/>
      <point x="282" y="628" type="line"/>
    </contour>
    <contour>
      <point x="147" y="525" type="line"/>
      <point x="68" y="525" type="line"/>
      <point x="68" y="0" type="line"/>
      <point x="147" y="0" type="line"/>
    </contour>
  </outline>
</glyph>
<glyph name="eth" format="1">
  <advance width="570"/>
  <unicode hex="00F0"/>
  <outline>
    <contour>
      <point x="134" y="262" type="qcurve" smooth="yes"/>
      <point x="134" y="337"/>
      <point x="143" y="413"/>
      <point x="171" y="453"/>
      <point x="229" y="467"/>
      <point x="285" y="467" type="qcurve" smooth="yes"/>
      <point x="341" y="467"/>
      <point x="399" y="453"/>
      <point x="428" y="413"/>
      <point x="436" y="337"/>
      <point x="436" y="262" type="qcurve" smooth="yes"/>
      <point x="436" y="187"/>
      <point x="428" y="112"/>
      <point x="399" y="72"/>
      <point x="341" y="58"/>
      <point x="285" y="58" type="qcurve" smooth="yes"/>
      <point x="229" y="58"/>
      <point x="171" y="72"/>
      <point x="143" y="112"/>
      <point x="134" y="187"/>
    </contour>
    <contour>
      <point x="186" y="732" type="line"/>
      <point x="215" y="714"/>
      <point x="270" y="669" type="qcurve" smooth="yes"/>
      <point x="284" y="658" type="line"/>
      <point x="166" y="620" type="line"/>
      <point x="210" y="583" type="line"/>
      <point x="322" y="618" type="line"/>
      <point x="349" y="589"/>
      <point x="391" y="528"/>
      <point x="403" y="500" type="qcurve"/>
      <point x="378" y="518"/>
      <point x="333" y="531"/>
      <point x="285" y="531" type="qcurve" smooth="yes"/>
      <point x="209" y="531"/>
      <point x="120" y="508"/>
      <point x="71" y="451"/>
      <point x="52" y="349"/>
      <point x="52" y="262" type="qcurve" smooth="yes"/>
      <point x="52" y="175"/>
      <point x="71" y="73"/>
      <point x="120" y="17"/>
      <point x="209" y="-6"/>
      <point x="285" y="-6" type="qcurve" smooth="yes"/>
      <point x="367" y="-6"/>
      <point x="454" y="15"/>
      <point x="501" y="79"/>
      <point x="518" y="203"/>
      <point x="518" y="318" type="qcurve" smooth="yes"/>
      <point x="518" y="414"/>
      <point x="456" y="576"/>
      <point x="397" y="641" type="qcurve"/>
      <point x="507" y="675" type="line"/>
      <point x="460" y="716" type="line"/>
      <point x="356" y="682" type="line"/>
      <point x="316" y="720"/>
      <point x="258" y="756" type="qcurve"/>
    </contour>
  </outline>
</glyph>
<glyph name="ntilde" format="1">
  <advance width="580"/>
  <unicode hex="00F1"/>
  <outline>
    <contour>
      <point x="417" y="689" type="line"/>
      <point x="406" y="670"/>
      <point x="377" y="645"/>
      <point x="359" y="645" type="qcurve" smooth="yes"/>
      <point x="347" y="645"/>
      <point x="315" y="656"/>
      <point x="290" y="667" type="qcurve" smooth="yes"/>
      <point x="286" y="669" type="line" smooth="yes"/>
      <point x="260" y="679"/>
      <point x="231" y="688"/>
      <point x="217" y="688" type="qcurve" smooth="yes"/>
      <point x="184" y="688"/>
      <point x="138" y="648"/>
      <point x="121" y="614" type="qcurve"/>
      <point x="166" y="588" type="line"/>
      <point x="168" y="592"/>
      <point x="170" y="594" type="qcurve" smooth="yes"/>
      <point x="180" y="613"/>
      <point x="198" y="629"/>
      <point x="216" y="629" type="qcurve" smooth="yes"/>
      <point x="234" y="629"/>
      <point x="277" y="611" type="qcurve" smooth="yes"/>
      <point x="284" y="608" type="line" smooth="yes"/>
      <point x="309" y="597"/>
      <point x="342" y="586"/>
      <point x="357" y="586" type="qcurve" smooth="yes"/>
      <point x="390" y="586"/>
      <point x="441" y="628"/>
      <point x="460" y="661" type="qcurve"/>
    </contour>
    <contour>
      <point x="148" y="525" type="line"/>
      <point x="69" y="525" type="line"/>
      <point x="69" y="0" type="line"/>
      <point x="148" y="0" type="line"/>
      <point x="148" y="306" type="line" smooth="yes"/>
      <point x="148" y="353"/>
      <point x="161" y="414"/>
      <point x="195" y="451"/>
      <point x="256" y="467"/>
      <point x="305" y="467" type="qcurve" smooth="yes"/>
      <point x="376" y="467"/>
      <point x="431" y="424"/>
      <point x="431" y="355" type="qcurve" smooth="yes"/>
      <point x="431" y="0" type="line"/>
      <point x="510" y="0" type="line"/>
      <point x="510" y="349" type="line" smooth="yes"/>
      <point x="510" y="455"/>
      <point x="417" y="531"/>
      <point x="312" y="531" type="qcurve" smooth="yes"/>
      <point x="285" y="531"/>
      <point x="238" y="526"/>
      <point x="194" y="512"/>
      <point x="159" y="484"/>
      <point x="150" y="461" type="qcurve"/>
      <point x="148" y="461" type="line"/>
    </contour>
  </outline>
</glyph>
<glyph name="divide" format="1">
  <advance width="584"/>
  <unicode hex="00F7"/>
  <outline>
    <contour>
      <point x="534" y="321" type="line"/>
      <point x="50" y="321" type="line"/>
      <point x="50" y="246" type="line"/>
      <point x="534" y="246" type="line"/>
    </contour>
    <contour>
      <point x="344" y="42" type="line"/>
      <point x="344" y="146" type="line"/>
      <point x="240" y="146" type="line"/>
      <point x="240" y="42" type="line"/>
    </contour>
    <contour>
      <point x="344" y="421" type="line"/>
      <point x="344" y="525" type="line"/>
      <point x="240" y="525" type="line"/>
      <point x="240" y="421" type="line"/>
    </contour>
  </outline>
</glyph>
<glyph name="ugrave" format="1">
  <advance width="570"/>
  <unicode hex="00F9"/>
  <outline>
    <contour>
      <point x="191" y="743" type="line"/>
      <point x="151" y="689" type="line"/>
      <point x="313" y="589" type="line"/>
      <point x="339" y="630" type="line"/>
    </contour>
    <contour>
      <point x="420" y="0" type="line"/>
      <point x="500" y="0" type="line"/>
      <point x="500" y="525" type="line"/>
      <point x="421" y="525" type="line"/>
      <point x="421" y="201" type="line" smooth="yes"/>
      <point x="421" y="113"/>
      <point x="344" y="58"/>
      <point x="253" y="58" type="qcurve" smooth="yes"/>
      <point x="182" y="58"/>
      <point x="145" y="116"/>
      <point x="145" y="188" type="qcurve" smooth="yes"/>
      <point x="145" y="525" type="line"/>
      <point x="66" y="525" type="line"/>
      <point x="66" y="188" type="line" smooth="yes"/>
      <point x="66" y="83"/>
      <point x="151" y="-6"/>
      <point x="254" y="-6" type="qcurve" smooth="yes"/>
      <point x="315" y="-6"/>
      <point x="399" y="26"/>
      <point x="418" y="70" type="qcurve"/>
      <point x="420" y="70" type="line"/>
    </contour>
  </outline>
</glyph>
<glyph name="uacute" format="1">
  <advance width="570"/>
  <unicode hex="00FA"/>
  <outline>
    <contour>
      <point x="340" y="743" type="line"/>
      <point x="191" y="630" type="line"/>
      <point x="218" y="589" type="line"/>
      <point x="379" y="689" type="line"/>
    </contour>
    <contour>
      <point x="420" y="0" type="line"/>
      <point x="500" y="0" type="line"/>
      <point x="500" y="525" type="line"/>
      <point x="421" y="525" type="line"/>
      <point x="421" y="201" type="line" smooth="yes"/>
      <point x="421" y="113"/>
      <point x="344" y="58"/>
      <point x="253" y="58" type="qcurve" smooth="yes"/>
      <point x="182" y="58"/>
      <point x="145" y="116"/>
      <point x="145" y="188" type="qcurve" smooth="yes"/>
      <point x="145" y="525" type="line"/>
      <point x="66" y="525" type="line"/>
      <point x="66" y="188" type="line" smooth="yes"/>
      <point x="66" y="83"/>
      <point x="151" y="-6"/>
      <point x="254" y="-6" type="qcurve" smooth="yes"/>
      <point x="315" y="-6"/>
      <point x="399" y="26"/>
      <point x="418" y="70" type="qcurve"/>
      <point x="420" y="70" type="line"/>
    </contour>
  </outline>
</glyph>
<glyph name="OE" format="1">
  <advance width="1109"/>
  <unicode hex="0152"/>
  <outline>
    <contour>
      <point x="353" y="681" type="qcurve" smooth="yes"/>
      <point x="437" y="681"/>
      <point x="521" y="671"/>
      <point x="571" y="632"/>
      <point x="591" y="549"/>
      <point x="591" y="472" type="qcurve" smooth="yes"/>
      <point x="591" y="271" type="line" smooth="yes"/>
      <point x="591" y="197"/>
      <point x="569" y="116"/>
      <point x="517" y="79"/>
      <point x="433" y="69"/>
      <point x="353" y="69" type="qcurve" smooth="yes"/>
      <point x="276" y="69"/>
      <point x="199" y="78"/>
      <point x="149" y="115"/>
      <point x="126" y="197"/>
      <point x="126" y="271" type="qcurve" smooth="yes"/>
      <point x="127" y="472" type="line" smooth="yes"/>
      <point x="127" y="549"/>
      <point x="147" y="632"/>
      <point x="195" y="670"/>
      <point x="274" y="681"/>
    </contour>
    <contour>
      <point x="676" y="675" type="line"/>
      <point x="1072" y="675" type="line"/>
      <point x="1072" y="750" type="line"/>
      <point x="591" y="750" type="line"/>
      <point x="591" y="670" type="line"/>
      <point x="589" y="670" type="line"/>
      <point x="583" y="698"/>
      <point x="531" y="733"/>
      <point x="459" y="751"/>
      <point x="388" y="756"/>
      <point x="353" y="756" type="qcurve" smooth="yes"/>
      <point x="259" y="756"/>
      <point x="141" y="729"/>
      <point x="72" y="666"/>
      <point x="42" y="558"/>
      <point x="42" y="472" type="qcurve" smooth="yes"/>
      <point x="42" y="271" type="line" smooth="yes"/>
      <point x="42" y="177"/>
      <point x="76" y="67"/>
      <point x="148" y="12"/>
      <point x="260" y="-6"/>
      <point x="353" y="-6" type="qcurve" smooth="yes"/>
      <point x="398" y="-6"/>
      <point x="461" y="-2"/>
      <point x="523" y="14"/>
      <point x="574" y="49"/>
      <point x="589" y="78" type="qcurve"/>
      <point x="591" y="78" type="line"/>
      <point x="591" y="0" type="line"/>
      <point x="1072" y="0" type="line"/>
      <point x="1072" y="75" type="line"/>
      <point x="676" y="75" type="line"/>
      <point x="676" y="350" type="line"/>
      <point x="1055" y="350" type="line"/>
      <point x="1055" y="420" type="line"/>
      <point x="676" y="420" type="line"/>
    </contour>
  </outline>
</glyph>
<glyph name="Ydieresis" format="1">
  <advance width="632"/>
  <unicode hex="0178"/>
  <outline>
    <contour>
      <point x="260" y="878" type="line"/>
      <point x="172" y="878" type="line"/>
      <point x="172" y="804" type="line"/>
      <point x="260" y="804" type="line"/>
    </contour>
    <contour>
      <point x="460" y="878" type="line"/>
      <point x="372" y="878" type="line"/>
      <point x="372" y="804" type="line"/>
      <point x="460" y="804" type="line"/>
    </contour>
    <contour>
      <point x="638" y="750" type="line"/>
      <point x="537" y="750" type="line"/>
      <point x="315" y="399" type="line"/>
      <point x="93" y="750" type="line"/>
      <point x="-6" y="750" type="line"/>
      <point x="269" y="313" type="line"/>
      <point x="269" y="0" type="line"/>
      <point x="354" y="0" type="line"/>
      <point x="354" y="313" type="line"/>
    </contour>
  </outline>
</glyph>
<glyph name="quoteleft" format="1">
  <advance width="201"/>
  <unicode hex="2018"/>
  <outline>
    <contour>
      <point x="102" y="644" type="line"/>
      <point x="102" y="663" type="line" smooth="yes"/>
      <point x="102" y="690"/>
      <point x="123" y="710"/>
      <point x="151" y="711" type="qcurve"/>
      <point x="151" y="756" type="line"/>
      <point x="128" y="756" type="line" smooth="yes"/>
      <point x="82" y="756"/>
      <point x="51" y="709"/>
      <point x="51" y="663" type="qcurve" smooth="yes"/>
      <point x="51" y="542" type="line"/>
      <point x="140" y="542" type="line"/>
      <point x="140" y="644" type="line"/>
    </contour>
  </outline>
</glyph>
<glyph name="quotedblleft" format="1">
  <advance width="359"/>
  <unicode hex="201C"/>
  <outline>
    <contour>
      <point x="259" y="644" type="line"/>
      <point x="259" y="663" type="line" smooth="yes"/>
      <point x="259" y="690"/>
      <point x="280" y="710"/>
      <point x="308" y="711" type="qcurve"/>
      <point x="308" y="756" type="line"/>
      <point x="285" y="756" type="line" smooth="yes"/>
      <point x="239" y="756"/>
      <point x="208" y="709"/>
      <point x="208" y="663" type="qcurve" smooth="yes"/>
      <point x="208" y="542" type="line"/>
      <point x="297" y="542" type="line"/>
      <point x="297" y="644" type="line"/>
    </contour>
    <contour>
      <point x="102" y="644" type="line"/>
      <point x="102" y="663" type="line" smooth="yes"/>
      <point x="102" y="690"/>
      <point x="123" y="710"/>
      <point x="151" y="711" type="qcurve"/>
      <point x="151" y="756" type="line"/>
      <point x="128" y="756" type="line" smooth="yes"/>
      <point x="82" y="756"/>
      <point x="51" y="709"/>
      <point x="51" y="663" type="qcurve" smooth="yes"/>
      <point x="51" y="542" type="line"/>
      <point x="140" y="542" type="line"/>
      <point x="140" y="644" type="line"/>
    </contour>
  </outline>
</glyph>
<glyph name="daggerdbl" format="1">
  <advance width="690"/>
  <unicode hex="2021"/>
  <outline>
    <contour>
      <point x="387" y="750" type="line"/>
      <point x="302" y="750" type="line"/>
      <point x="302" y="514" type="line"/>
      <point x="130" y="514" type="line"/>
      <point x="130" y="444" type="line"/>
      <point x="302" y="444" type="line"/>
      <point x="302" y="115" type="line"/>
      <point x="130" y="115" type="line"/>
      <point x="130" y="45" type="line"/>
      <point x="302" y="45" type="line"/>
      <point x="302" y="-209" type="line"/>
      <point x="387" y="-209" type="line"/>
      <point x="387" y="45" type="line"/>
      <point x="560" y="45" type="line"/>
      <point x="560" y="115" type="line"/>
      <point x="387" y="115" type="line"/>
      <point x="387" y="444" type="line"/>
      <point x="560" y="444" type="line"/>
      <point x="560" y="514" type="line"/>
      <point x="387" y="514" type="line"/>
    </contour>
  </outline>
</glyph>
<glyph name="bullet" format="1">
  <advance width="520"/>
  <unicode hex="2022"/>
  <outline>
    <contour>
      <point x="448" y="375" type="qcurve" smooth="yes"/>
      <point x="448" y="413"/>
      <point x="419" y="482"/>
      <point x="367" y="534"/>
      <point x="298" y="563"/>
      <point x="260" y="563" type="qcurve" smooth="yes"/>
      <point x="222" y="563"/>
      <point x="154" y="535"/>
      <point x="102" y="483"/>
      <point x="73" y="414"/>
      <point x="73" y="375" type="qcurve" smooth="yes"/>
      <point x="73" y="336"/>
      <point x="102" y="268"/>
      <point x="154" y="216"/>
      <point x="222" y="188"/>
      <point x="260" y="188" type="qcurve" smooth="yes"/>
      <point x="298" y="188"/>
      <point x="367" y="217"/>
      <point x="419" y="269"/>
      <point x="448" y="337"/>
    </contour>
  </outline>
</glyph>
<glyph name="trademark" format="1">
  <advance width="1000"/>
  <unicode hex="2122"/>
  <outline>
    <contour>
      <point x="942" y="750" type="line"/>
      <point x="832" y="750" type="line"/>
      <point x="707" y="453" type="line"/>
      <point x="586" y="750" type="line"/>
      <point x="475" y="750" type="line"/>
      <point x="475" y="329" type="line"/>
      <point x="545" y="329" type="line"/>
      <point x="545" y="690" type="line"/>
      <point x="547" y="690" type="line"/>
      <point x="687" y="329" type="line"/>
      <point x="726" y="329" type="line"/>
      <point x="870" y="690" type="line"/>
      <point x="872" y="690" type="line"/>
      <point x="872" y="329" type="line"/>
      <point x="942" y="329" type="line"/>
    </contour>
    <contour>
      <point x="404" y="750" type="line"/>
      <point x="63" y="750" type="line"/>
      <point x="63" y="690" type="line"/>
      <point x="196" y="690" type="line"/>
      <point x="196" y="329" type="line"/>
      <point x="271" y="329" type="line"/>
      <point x="271" y="690" type="line"/>
      <point x="404" y="690" type="line"/>
    </contour>
  </outline>
</glyph>
<glyph name=".notdef" format="1">
  <advance width="502"/>
  <outline>
    <contour>
      <point x="-1" y="0" type="line"/>
      <point x="499" y="0" type="line"/>
      <point x="499" y="500" type="line"/>
      <point x="-1" y="500" type="line"/>
    </contour>
    <contour>
      <point x="9" y="10" type="line"/>
      <point x="9" y="490" type="line"/>
      <point x="489" y="490" type="line"/>
      <point x="489" y="10" type="line"/>
    </contour>
  </outline>
</glyph>
